<?xml version="1.0" encoding="utf-8"?>
<!-- Generator: Adobe Illustrator 21.0.0, SVG Export Plug-In . SVG Version: 6.00 Build 0)  -->
<svg version="1.1" id="Layer_1" xmlns="http://www.w3.org/2000/svg" xmlns:xlink="http://www.w3.org/1999/xlink" x="0px" y="0px"
	 viewBox="0 0 669.4 182.4" style="enable-background:new 0 0 669.4 182.4;" xml:space="preserve">
<style type="text/css">
	.st0{fill:#2C2C2C;}
</style>
<polygon class="st0" points="641.6,50 641.6,48.2 652.6,48.2 652.6,50 648.1,50 648.1,63.6 646.1,63.6 646.1,50 "/>
<polygon class="st0" points="667.4,48.2 662.2,59 656.9,48.2 654.9,48.2 654.9,63.6 656.8,63.6 656.8,52.7 661.2,61.5 663.1,61.5 
	667.5,52.7 667.5,63.6 669.4,63.6 669.4,48.2 "/>
<path class="st0" d="M30.6,0v67.9c4.3-12,19.4-21.5,41.1-21.5c36.3,0,64.4,29.1,64.4,67.2s-28.1,67.2-64.4,67.2
	c-21.7,0-36.8-9.4-41.1-21.5V178H0V0H30.6z M105.7,113.7c0-22.5-16.3-39.3-38.1-39.3c-22.2,0-39.3,16.9-39.3,39.3
	c0,22.5,17.1,39.3,39.3,39.3C89.3,153,105.7,136.1,105.7,113.7z"/>
<path class="st0" d="M215,45.4c39,0,70.5,29.8,70.5,68.5S254,182.4,215,182.4c-39.2,0-70.5-29.7-70.5-68.5
	C144.5,75.2,175.8,45.4,215,45.4z M215,154.4c22.6,0,40-17.7,40-40.5s-17.4-40.5-40-40.5c-22.8,0-40,17.7-40,40.5
	C175,136.7,192.2,154.4,215,154.4z"/>
<path class="st0" d="M293.9,49.5h29.9v20.3c6-13.1,19.6-21.4,37.7-21.4c3.3,0,7.8,0.5,9.1,0.8v29.2c-3.5-0.8-7.8-1.3-12.6-1.3
	c-20.9,0-34.2,13.1-34.2,34v66.7h-29.9V49.5z"/>
<path class="st0" d="M382.4,49.7h30.3V68c5.8-12.2,19.8-20.9,38.4-20.9c30.3,0,47.8,19.8,47.8,51.4V139c0,9.4,1.5,13.5,8.6,13.5
	c1.5,0,3.3-0.3,4.3-0.5v25.7c-1.8,0.5-6.4,1.5-13.2,1.5c-16,0-30-6.9-30-33.6v-42.7c0-17.3-9.9-28.5-27-28.5
	c-16.8,0-29,12.2-29,29.8v73.7h-30.2V49.7z"/>
<path class="st0" d="M514.9,113.7c0-41.4,28.9-67.9,67.4-67.9c38.3,0,63.6,28.9,63.6,64.9c0,0,0,5.6-0.5,10.7H545.2
	c1,20.4,16.1,33.7,38.8,33.7c15.6,0,25-5.1,34.7-14.8l18.4,17.9c-16.6,17.6-34.7,23-54.1,23c-40.4,0-68.2-26.1-68.2-66.4
	L514.9,113.7L514.9,113.7z M614.7,99.9c0-15.3-14.6-28.1-32.4-28.1c-19.2,0-35,12.5-36.3,28.1H614.7z"/>
</svg>
