<svg class="icon__el" xmlns="http://www.w3.org/2000/svg" viewBox="0 0 16 16">
  <path d="M8 0a8.1 8.1 0 0 0-8 8.2A8.18 8.18 0 0 0 5.47 16c.4.07.55-.17.55-.39v-1.53c-2 .38-2.53-.5-2.69-1a3 3 0 0 0-.82-1.16c-.28-.15-.68-.53 0-.54a1.6 1.6 0 0 1 1.23.84 1.69 1.69 0 0 0 2.26.7 1.74 1.74 0 0 1 .51-1.1c-1.78-.21-3.64-.91-3.64-4a3.24 3.24 0 0 1 .82-2.2 3 3 0 0 1 .08-2.17s.67-.22 2.2.84a7.36 7.36 0 0 1 4 0c1.53-1.07 2.2-.84 2.2-.84a3 3 0 0 1 .08 2.17 3.22 3.22 0 0 1 .82 2.2c0 3.15-1.87 3.84-3.65 4a2 2 0 0 1 .58 1.52v2.26s.15.47.55.39A8.2 8.2 0 0 0 16 8.2 8.1 8.1 0 0 0 8 0z"/>
</svg>
