<svg class="icon__el" xmlns="http://www.w3.org/2000/svg" viewBox="0 0 16 16">
  <path d="M8 3.84A4.13 4.13 0 1 0 12.13 8 4.14 4.14 0 0 0 8 3.84zm0 6.77a2.67 2.67 0 1 1 2.67-2.67A2.67 2.67 0 0 1 8 10.61z"/>
  <circle cx="12.29" cy="3.75" r=".93"/>
  <path d="M14.71 1.32A4.59 4.59 0 0 0 11.32 0H4.68A4.42 4.42 0 0 0 0 4.68v6.61a4.64 4.64 0 0 0 1.35 3.45A4.71 4.71 0 0 0 4.71 16h6.58a4.76 4.76 0 0 0 3.39-1.26A4.62 4.62 0 0 0 16 11.32V4.68a4.62 4.62 0 0 0-1.29-3.36zm-.13 10a3.15 3.15 0 0 1-.93 2.36 3.33 3.33 0 0 1-2.36.84H4.71a3.33 3.33 0 0 1-2.36-.84 3.24 3.24 0 0 1-.87-2.39V4.68a3.2 3.2 0 0 1 .87-2.36 3.28 3.28 0 0 1 2.35-.84h6.64a3.2 3.2 0 0 1 2.36.87 3.33 3.33 0 0 1 .87 2.32z"/>
</svg>
