<svg class="icon__el" xmlns="http://www.w3.org/2000/svg" viewBox="0 0 30 30">
	<path d="M15 7.2a7.74 7.74 0 1 0 7.74 7.74A7.76 7.76 0 0 0 15 7.2zm0 12.7a5 5 0 1 1 5-5 5 5 0 0 1-5 5z"/>
	<circle cx="23.04" cy="7.02" r="1.75"/>
	<path d="M27.58 2.48A8.61 8.61 0 0 0 21.23 0H8.77C3.51 0 0 3.51 0 8.77v12.4a8.7 8.7 0 0 0 2.54 6.47A8.83 8.83 0 0 0 8.83 30h12.34a8.93 8.93 0 0 0 6.35-2.36A8.66 8.66 0 0 0 30 21.23V8.77a8.67 8.67 0 0 0-2.42-6.29zm-.24 18.75a5.91 5.91 0 0 1-1.75 4.42 6.25 6.25 0 0 1-4.42 1.57H8.83a6.25 6.25 0 0 1-4.42-1.57 6.08 6.08 0 0 1-1.63-4.48V8.77a6 6 0 0 1 1.64-4.42 6.15 6.15 0 0 1 4.41-1.57h12.46a6 6 0 0 1 4.42 1.63 6.24 6.24 0 0 1 1.63 4.35v12.47z"/>
</svg>
