<svg class="icon__el" xmlns="http://www.w3.org/2000/svg" viewBox="0 0 16 16">
  <path d="M12.7 12.8c-1.6 0-2.6-.7-3.2-2.3l-.2-.4-1.5-3.4c-.5-1.2-1.7-2-3-2C3 4.7 1.5 6.2 1.5 8s1.5 3.3 3.3 3.3c1.2 0 2.4-.7 2.9-1.8l.1-.1s.1 0 .1.1l.6 1.4v.1c-.9 1.2-2.2 1.8-3.7 1.8C2.2 12.8 0 10.7 0 8c0-2.6 2.2-4.8 4.8-4.8 2 0 3.6 1.1 4.4 3 0 0 .8 1.9 1.5 3.6.4 1 .8 1.6 1.9 1.6s1.8-.6 1.8-1.4c0-.8-.5-1-1.6-1.3-1.9-.6-2.9-1.2-2.9-2.8 0-1.5 1-2.5 2.7-2.5 1.1 0 1.8.5 2.4 1.4v.1s0 .1-.1.1l-1 .5h-.1c-.3-.5-.7-.7-1.2-.7-.7 0-1.2.5-1.2 1.1 0 .8.6 1 1.6 1.3.1 0 .3.1.4.1 1.7.4 2.6 1 2.6 2.6s-1.4 2.9-3.3 2.9z"/>
</svg>
