<?xml version="1.0" encoding="utf-8"?>
<!-- Generator: Adobe Illustrator 21.0.2, SVG Export Plug-In . SVG Version: 6.00 Build 0)  -->
<svg version="1.1" id="Layer_1" xmlns="http://www.w3.org/2000/svg" xmlns:xlink="http://www.w3.org/1999/xlink" x="0px" y="0px"
	 width="120px" height="101.6px" viewBox="0 0 120 101.6" style="enable-background:new 0 0 120 101.6;" xml:space="preserve">
<g>
	<rect x="100.2" y="53.3" width="19.8" height="19.8"/>
	<g>
		<path d="M89.8,0L73.6,46.1h-0.3L56.1,0H42.2C27,0,21.7,6.1,19,12.5h-0.3V0H0v73h19.8V26.8c3-5.5,8.9-10,18.6-10
			c1.9,0,3.5,0.2,3.7,0.2l0,0l21.4,51.3C59.1,79.4,53.2,84.6,37,84.6v17c27.7,0,34.8-7.9,46.7-37l26.3-64.4L89.8,0L89.8,0z"/>
	</g>
</g>
</svg>
