<svg xmlns="http://www.w3.org/2000/svg" viewBox="-379 264.1 201 33.9"><path d="M-343.5 267.9c.8 0 1.4-.6 1.4-1.4 0-.8-.6-1.4-1.4-1.4s-1.4.6-1.4 1.4c0 .8.6 1.4 1.4 1.4zm18.6-3.8v10.4h-.1c-1.8-2.6-4.1-3.7-6.7-3.7-6 0-9.5 4.3-9.5 10.2 0 5.8 3.7 10.2 9.5 10.2 6 0 9.5-4.3 9.5-10.2v-16.8l-2.7-.1zm-6.8 24.3c-4.3 0-6.8-3.1-6.8-7.4 0-4.3 2.3-7.4 6.8-7.4 3.7 0 6.8 3.1 6.8 7.4 0 4.3-2.4 7.4-6.8 7.4zm-13.2 2.7h2.7v-20.3h-2.7v20.3zm-3.7 0h2.7v-27h-2.7v27zm-10.4-20.3c-5.8 0-9.5 4.3-9.5 10.2v.2c-1-.6-2.2-1-3.5-1.5-3.1-1-4.1-1.8-4.1-3.5 0-2.3 2.1-3.3 4.1-3.3 1.4 0 2.8.5 3.5 1.8l1.9-1.6c-1.4-1.7-3.2-2.3-5.4-2.3-3.4 0-6.6 1.9-6.6 5.6 0 3.2 2.1 4.4 4.8 5.3 3.4 1.1 5 1.6 5 3.9 0 2.2-2.2 3.4-4.2 3.4-1.7 0-3.3-.7-4.1-2.2l-2 1.6c1.4 2 3.8 2.7 6 2.7 2.8 0 5.5-1.2 6.4-3.6 1.7 2.2 4.3 3.6 7.7 3.6 6 0 9.5-4.3 9.5-10.2 0-5.8-3.7-10.1-9.5-10.1zm0 17.6c-4.5 0-6.8-3.1-6.8-7.4 0-4.3 2.5-7.4 6.8-7.4s6.8 3.1 6.8 7.4c0 4.3-2.3 7.4-6.8 7.4zm103.5-8c0-5.3-3.4-9.6-9.3-9.7-2.5 0-4.7.9-6.4 2.4v-1.6h-5.5v-5.2h-2.7v5.2h-4.3v1.6c-1.6-1.5-3.8-2.4-6.5-2.4-2.6 0-4.8.9-6.4 2.4v-1.6h-5.5v-5.2h-2.9v5.2h-3.8c-1-.5-2.1-.6-3.3-.6-3.4 0-6.6 1.9-6.6 5.6 0 3.2 2.1 4.4 4.8 5.3 3.4 1.1 5 1.6 5 3.9 0 2.2-2.2 3.4-4.2 3.4-1.7 0-3.3-.7-4.1-2.2l-2 1.6c1.3 1.9 3.7 2.7 5.9 2.7 3.5 0 6.8-1.8 6.8-5.6s-2.8-4.8-5.8-5.7c-3.1-1-4.1-1.8-4.1-3.5 0-2.3 2.1-3.2 4.1-3.2 1.4 0 2.8.5 3.5 1.8l.9-.8h2.9V286c0 3.8 2.3 5.4 5.9 5.4 1.6 0 3-.3 4.4-.9 1.2.6 2.7.9 4.3.9 2.6 0 4.9-1.1 6.7-3.7h.1v3.4h2.7v-10.2c0-2.8-.8-5.2-2.2-7h3.6v11.8c0 3.8 2.3 5.4 5.9 5.4 1.6 0 3.1-.3 4.5-1 1.3.6 2.8 1 4.5 1 3.2 0 6-1.2 8.3-4.1l-2.1-1.7c-1.1 1.7-3.3 3.3-6.2 3.3-3.8 0-6.8-3.1-7.1-6.9h16.1l.1-1.3zm-45.9 7.3c-.6-.6-.9-1.5-.9-2.7v-11.1h4.8c-1.5 1.8-2.3 4.2-2.3 7 0 3 .9 5.6 2.7 7.5-.6.2-1.2.2-1.9.2-.9 0-1.8-.3-2.4-.9zm11.1.7c-4.5 0-6.8-3.1-6.8-7.4 0-4.3 2.5-7.4 6.8-7.4 4.5 0 6.8 3.1 6.8 7.4 0 4.3-3.2 7.4-6.8 7.4zm18.8 0c-.6.2-1.3.3-2 .3-.9 0-1.7-.3-2.3-1-.6-.6-.9-1.5-.9-2.7v-11.1h4.8c-1.6 1.8-2.5 4.2-2.5 7-.1 3 1 5.6 2.9 7.5zm-.1-8.9c0-3.2 3.2-6.2 6.8-6.2 3.9 0 6.3 2.5 6.3 6.2h-13.1zm84.1-8.7c-2.9 0-5.2 1-6.8 2.6v-2.6h-2.7V282c0 4.3-1.6 6.7-5.7 6.7s-5.7-2.4-5.7-6.7v-11.2h-2.7v5.5c-1.5-3.3-4.5-5.5-8.6-5.5-2.1 0-4 .6-5.5 1.7l.3-1.4c-.6-.2-1.2-.2-2-.2-2.5 0-5.9.7-7.7 4-1.6-2.5-4.3-4-7.8-4-5.8 0-9.5 4.3-9.5 10.2 0 5.8 3.5 10.2 9.5 10.2 2.6 0 4.9-1.1 6.7-3.7h.1v.2c0 4.9-3.4 7.9-7.3 7.9-2.9 0-5.1-1.6-6.2-3.3l-2.1 1.7c2.3 2.9 5.1 4.1 8.3 4.1 5.5 0 9.9-3.6 10-10.3v-8c0-3.1 1.3-6.2 5.9-6.2h.6c-1.7 1.8-2.7 4.4-2.7 7.4 0 5.8 3.5 10.2 9.5 10.2 4.4 0 7.4-2.3 8.7-5.7.7 3.7 3.4 5.7 8.3 5.7 2.4 0 4.3-.5 5.7-1.5v8.3h2.7v-10.7h.1c1.8 2.6 4.1 3.7 6.7 3.7 6 0 9.5-4.3 9.5-10.2-.1-5.8-3.8-10.1-9.6-10.1zm-55 17.6c-4.5 0-6.8-3.1-6.8-7.4 0-4.3 2.5-7.4 6.8-7.4 4.5 0 6.8 3.1 6.8 7.4 0 4.3-3.1 7.4-6.8 7.4zm22.8 0c-4.5 0-6.8-3.1-6.8-7.4 0-4.3 2.5-7.4 6.8-7.4s6.8 3.1 6.8 7.4c0 4.3-2.3 7.4-6.8 7.4zm32.2 0c-3.7 0-6.8-3.1-6.8-7.4 0-4.3 2.3-7.4 6.8-7.4 4.3 0 6.8 3.1 6.8 7.4 0 4.3-2.3 7.4-6.8 7.4z"/></svg>