<?xml version="1.0" encoding="UTF-8" standalone="no"?>
<svg width="70px" height="79px" viewBox="0 0 70 79" version="1.1" xmlns="http://www.w3.org/2000/svg" xmlns:xlink="http://www.w3.org/1999/xlink">
    <!-- Generator: Sketch 3.8.3 (29802) - http://www.bohemiancoding.com/sketch -->
    <title>Shape</title>
    <desc>Created with Sketch.</desc>
    <defs></defs>
    <g id="Work" stroke="none" stroke-width="1" fill="none" fill-rule="evenodd">
        <g id="Work-Desktop" transform="translate(-156.000000, -998.000000)" fill="#FFC000">
            <polygon id="Shape" points="162.301461 1010.41429 161.851357 1010.64 161.626305 1010.86571 161.401252 1011.09143 161.1762 1011.31714 160.951148 1011.54286 160.726096 1011.76857 160.501044 1011.99429 160.275991 1012.22 160.050939 1012.44571 159.825887 1012.67143 159.600835 1012.89714 159.600835 1013.34857 159.375783 1013.34857 159.150731 1013.57429 159.150731 1014.25143 158.925678 1014.25143 158.700626 1014.47714 158.700626 1015.15429 158.475574 1015.15429 158.250522 1015.38 158.250522 1016.05714 158.02547 1016.05714 158.02547 1016.50857 157.800417 1016.50857 157.800417 1017.18571 157.575365 1017.18571 157.575365 1017.63714 157.350313 1017.63714 157.350313 1018.76571 157.125261 1018.76571 157.125261 1019.21714 156.900209 1019.21714 156.900209 1020.34571 156.675157 1020.34571 156.675157 1021.02286 156.450104 1021.02286 156.450104 1023.50571 156.225052 1023.50571 156.225052 1026.89143 156 1026.89143 156 1029.14857 156.225052 1029.14857 156.225052 1030.95429 156.450104 1030.95429 156.450104 1034.56571 156.675157 1034.56571 156.675157 1035.69429 156.900209 1035.69429 156.900209 1037.72571 157.125261 1037.72571 157.125261 1038.40286 157.350313 1038.40286 157.350313 1039.53143 157.575365 1039.53143 157.575365 1039.98286 157.800417 1039.98286 157.800417 1041.11143 158.02547 1041.11143 158.02547 1041.56286 158.250522 1041.56286 158.250522 1042.24 158.475574 1042.24 158.475574 1042.69143 158.700626 1042.69143 158.700626 1043.36857 158.925678 1043.36857 159.150731 1043.59429 159.150731 1044.27143 159.375783 1044.27143 159.600835 1044.49714 159.600835 1044.94857 159.825887 1044.94857 160.050939 1045.17429 160.050939 1045.62571 160.275991 1045.62571 160.501044 1045.85143 160.726096 1046.07714 160.951148 1046.30286 161.1762 1046.52857 161.401252 1046.75429 161.626305 1046.98 161.851357 1047.20571 162.301461 1047.43143 162.526513 1047.65714 162.976618 1047.88286 163.20167 1048.10857 163.651774 1048.33429 163.876826 1048.56 164.551983 1048.78571 165.002087 1049.01143 165.677244 1049.23714 166.127348 1049.46286 167.252609 1049.68857 167.702713 1049.91429 169.053026 1050.14 169.503131 1050.36571 171.078496 1050.59143 171.5286 1050.81714 174.004174 1051.04286 175.129435 1051.26857 177.830061 1051.49429 178.280166 1051.72 180.080583 1051.94571 180.75574 1052.17143 181.881001 1052.39714 182.106053 1052.62286 183.006262 1052.84857 183.231314 1053.07429 183.90647 1053.3 184.131523 1053.52571 184.806679 1053.75143 185.031731 1053.97714 185.256783 1054.20286 185.481836 1054.42857 185.93194 1054.65429 186.156992 1054.88 186.382044 1055.10571 186.607097 1055.33143 186.607097 1055.78286 186.832149 1055.78286 187.057201 1056.00857 187.282253 1056.23429 187.507305 1056.46 187.507305 1056.91143 187.732357 1056.91143 187.95741 1057.13714 187.95741 1057.81429 188.182462 1057.81429 188.407514 1058.04 188.407514 1058.71714 188.632566 1058.71714 188.632566 1059.16857 188.857618 1059.16857 188.857618 1062.78 188.632566 1062.78 188.632566 1063.23143 188.407514 1063.23143 188.407514 1063.90857 188.182462 1063.90857 187.95741 1064.13429 187.95741 1064.58571 187.732357 1064.58571 187.507305 1064.81143 187.507305 1065.26286 187.282253 1065.26286 187.057201 1065.48857 186.832149 1065.71429 186.607097 1065.94 186.156992 1066.16571 186.156992 1066.61714 185.706888 1066.61714 185.481836 1066.84286 184.806679 1067.06857 184.581627 1067.29429 183.90647 1067.52 183.681418 1067.74571 182.556157 1067.97143 182.331105 1068.19714 180.530688 1068.42286 177.605009 1068.64857 176.029644 1068.42286 175.804592 1068.19714 175.129435 1067.97143 174.904383 1067.74571 174.454279 1067.52 174.229227 1067.29429 174.004174 1067.06857 173.779122 1066.84286 173.329018 1066.61714 173.329018 1066.16571 173.103966 1066.16571 172.878914 1065.94 172.653861 1065.71429 172.428809 1065.48857 172.428809 1065.03714 172.203757 1065.03714 171.978705 1064.81143 171.978705 1064.36 171.753653 1064.36 171.5286 1064.13429 170.853444 1063.90857 163.651774 1067.06857 163.651774 1067.97143 163.876826 1067.97143 164.101878 1068.19714 164.101878 1068.87429 164.326931 1068.87429 164.551983 1069.1 164.551983 1069.77714 164.777035 1069.77714 165.002087 1070.00286 165.002087 1070.45429 165.227139 1070.45429 165.452192 1070.68 165.452192 1071.13143 165.677244 1071.13143 165.902296 1071.35714 165.902296 1071.80857 166.3524 1071.80857 166.3524 1072.26 166.577452 1072.26 166.802505 1072.48571 167.027557 1072.71143 167.252609 1072.93714 167.477661 1073.16286 167.702713 1073.38857 168.152818 1073.61429 168.37787 1073.84 168.602922 1074.06571 168.827974 1074.29143 169.278079 1074.51714 169.503131 1074.74286 170.178287 1074.96857 170.40334 1075.19429 171.078496 1075.42 171.303548 1075.64571 172.203757 1075.87143 172.653861 1076.09714 173.779122 1076.32286 174.229227 1076.54857 176.479748 1076.77429 179.405427 1077 181.655949 1076.77429 182.331105 1076.54857 183.90647 1076.32286 184.356575 1076.09714 185.256783 1075.87143 185.706888 1075.64571 186.607097 1075.42 187.057201 1075.19429 187.732357 1074.96857 188.182462 1074.74286 188.632566 1074.51714 189.082671 1074.29143 189.757827 1074.06571 189.982879 1073.84 190.432984 1073.61429 190.658036 1073.38857 191.333192 1073.16286 191.558244 1072.93714 192.008349 1072.71143 192.233401 1072.48571 192.458453 1072.26 192.683505 1072.03429 193.13361 1071.80857 193.358662 1071.58286 193.583714 1071.35714 193.808766 1071.13143 194.033818 1070.90571 194.258871 1070.68 194.483923 1070.45429 194.708975 1070.22857 194.934027 1070.00286 194.934027 1069.55143 195.159079 1069.55143 195.384132 1069.32571 195.384132 1068.87429 195.609184 1068.87429 195.834236 1068.64857 195.834236 1068.19714 196.059288 1068.19714 196.28434 1067.97143 196.28434 1067.29429 196.509392 1067.29429 196.734445 1067.06857 196.734445 1066.16571 196.959497 1066.16571 197.184549 1065.94 197.184549 1065.03714 197.409601 1065.03714 197.409601 1064.58571 197.634653 1064.58571 197.634653 1063.00571 197.859706 1063.00571 197.859706 1062.10286 198.084758 1062.10286 198.084758 1060.07143 197.859706 1060.07143 197.859706 1059.16857 197.634653 1059.16857 197.634653 1057.36286 197.409601 1057.36286 197.409601 1056.91143 197.184549 1056.91143 197.184549 1055.78286 196.959497 1055.78286 196.959497 1055.33143 196.734445 1055.33143 196.734445 1054.42857 196.509392 1054.42857 196.28434 1054.20286 196.28434 1053.3 196.059288 1053.3 195.834236 1053.07429 195.834236 1052.62286 195.609184 1052.62286 195.384132 1052.39714 195.384132 1051.94571 195.159079 1051.94571 194.934027 1051.72 194.934027 1051.26857 194.708975 1051.26857 194.483923 1051.04286 194.258871 1050.81714 194.033818 1050.59143 193.808766 1050.36571 193.583714 1050.14 193.358662 1049.91429 193.13361 1049.68857 192.908558 1049.46286 192.683505 1049.23714 192.458453 1049.01143 192.233401 1048.78571 192.008349 1048.56 191.783297 1048.33429 191.333192 1048.10857 191.10814 1047.88286 190.658036 1047.65714 190.432984 1047.43143 189.982879 1047.20571 189.757827 1046.98 189.307723 1046.75429 188.857618 1046.52857 188.407514 1046.30286 188.182462 1046.07714 187.282253 1045.85143 187.057201 1045.62571 186.156992 1045.4 185.93194 1045.17429 184.806679 1044.94857 184.356575 1044.72286 183.231314 1044.49714 182.556157 1044.27143 181.205844 1044.04571 180.530688 1043.82 178.505218 1043.59429 178.055114 1043.36857 175.804592 1043.14286 175.354488 1042.91714 173.329018 1042.69143 172.653861 1042.46571 171.078496 1042.24 170.628392 1042.01429 169.728183 1041.78857 169.278079 1041.56286 168.37787 1041.33714 168.152818 1041.11143 167.477661 1040.88571 167.252609 1040.66 166.802505 1040.43429 166.577452 1040.20857 166.3524 1039.98286 166.127348 1039.75714 166.127348 1039.30571 165.902296 1039.30571 165.902296 1038.85429 165.677244 1038.85429 165.677244 1037.72571 165.452192 1037.72571 165.452192 1037.04857 165.227139 1037.04857 165.227139 1035.69429 165.002087 1035.69429 165.002087 1035.24286 164.777035 1035.24286 164.777035 1023.28 165.002087 1023.28 165.002087 1022.37714 165.227139 1022.37714 165.227139 1021.02286 165.452192 1021.02286 165.452192 1020.57143 165.677244 1020.57143 165.677244 1019.66857 165.902296 1019.66857 166.127348 1019.44286 166.127348 1018.99143 166.3524 1018.99143 166.3524 1018.54 166.577452 1018.54 166.802505 1018.31429 167.027557 1018.08857 167.252609 1017.86286 167.477661 1017.63714 167.702713 1017.41143 168.152818 1017.18571 168.37787 1016.96 168.827974 1016.73429 169.503131 1016.50857 170.628392 1016.28286 171.078496 1016.05714 172.203757 1015.83143 172.653861 1015.60571 173.779122 1015.38 174.229227 1015.15429 175.804592 1014.92857 175.804592 1015.60571 176.029644 1015.60571 178.505218 1024.86 178.73027 1024.86 182.556157 1024.40857 182.556157 1023.50571 182.331105 1023.50571 180.080583 1014.47714 179.855531 1014.47714 179.855531 1013.57429 180.305635 1013.57429 180.75574 1013.34857 181.881001 1013.12286 182.331105 1012.89714 183.681418 1012.67143 183.90647 1012.89714 186.156992 1021.92571 186.382044 1021.92571 186.382044 1022.37714 186.607097 1022.37714 186.607097 1023.05429 190.432984 1022.15143 188.182462 1012.44571 187.95741 1012.44571 187.95741 1011.99429 187.732357 1011.99429 187.732357 1011.54286 187.95741 1011.54286 188.182462 1011.31714 188.632566 1011.09143 189.757827 1010.86571 190.207931 1010.64 191.558244 1010.41429 191.783297 1010.64 191.783297 1011.09143 192.008349 1011.09143 194.483923 1020.57143 194.708975 1020.57143 198.984966 1019.66857 196.28434 1008.83429 196.509392 1008.83429 197.634653 1008.60857 198.084758 1008.38286 199.210019 1008.15714 199.660123 1007.93143 200.785384 1007.70571 201.235488 1007.48 202.360749 1007.25429 202.810854 1007.02857 205.51148 1006.80286 205.961584 1007.02857 206.636741 1007.25429 206.861793 1007.48 207.311897 1007.70571 207.536949 1007.93143 207.987054 1008.15714 208.212106 1008.38286 208.66221 1008.60857 208.887262 1008.83429 209.112315 1009.06 209.337367 1009.28571 209.562419 1009.51143 209.562419 1009.96286 210.012523 1009.96286 210.012523 1010.41429 210.237575 1010.41429 210.462628 1010.64 210.68768 1010.86571 210.912732 1011.09143 211.137784 1011.31714 211.362836 1011.54286 211.362836 1011.99429 211.587889 1011.99429 211.812941 1012.22 211.812941 1012.67143 212.263045 1012.67143 212.263045 1013.12286 212.488097 1013.12286 212.713149 1013.34857 212.713149 1013.8 212.938202 1013.8 213.163254 1014.02571 213.163254 1014.47714 213.388306 1014.47714 213.613358 1014.70286 213.613358 1015.38 213.83841 1015.38 214.063463 1015.60571 214.063463 1016.05714 214.288515 1016.05714 214.513567 1016.28286 214.513567 1016.96 214.738619 1016.96 214.963671 1017.18571 214.963671 1017.86286 215.188723 1017.86286 215.413776 1018.08857 215.413776 1018.99143 215.638828 1018.99143 215.86388 1019.21714 215.86388 1019.89429 216.088932 1019.89429 216.313984 1020.12 216.313984 1020.79714 216.539036 1020.79714 216.539036 1021.24857 216.764089 1021.24857 216.764089 1021.92571 216.989141 1021.92571 217.214193 1022.15143 217.214193 1023.28 217.439245 1023.28 217.439245 1025.76286 217.214193 1025.76286 217.214193 1026.66571 216.989141 1026.66571 216.764089 1026.89143 216.764089 1027.34286 216.539036 1027.34286 216.313984 1027.56857 216.313984 1028.02 216.088932 1028.02 215.86388 1028.24571 215.638828 1028.47143 215.413776 1028.69714 215.413776 1029.14857 214.963671 1029.14857 214.963671 1029.6 214.513567 1029.6 214.513567 1030.05143 214.063463 1030.05143 213.83841 1030.27714 213.613358 1030.50286 213.388306 1030.72857 213.163254 1030.95429 212.938202 1031.18 212.713149 1031.40571 212.488097 1031.63143 212.037993 1031.85714 211.812941 1032.08286 211.587889 1032.30857 211.362836 1032.53429 210.912732 1032.76 210.912732 1033.21143 210.462628 1033.21143 210.237575 1033.43714 210.012523 1033.66286 209.787471 1033.88857 209.562419 1034.11429 209.337367 1034.34 209.112315 1034.56571 208.887262 1034.79143 208.66221 1035.01714 208.437158 1035.24286 208.212106 1035.46857 207.987054 1035.69429 207.762001 1035.92 207.536949 1036.14571 207.311897 1036.37143 207.086845 1036.59714 206.861793 1036.82286 206.636741 1037.04857 206.411688 1037.27429 206.186636 1037.5 205.961584 1037.72571 205.736532 1037.95143 205.51148 1038.17714 205.286427 1038.40286 205.061375 1038.62857 204.836323 1038.85429 204.611271 1039.08 204.386219 1039.30571 204.161167 1039.53143 203.936114 1039.75714 203.711062 1039.98286 203.711062 1040.43429 203.260958 1040.43429 203.260958 1040.88571 203.035906 1040.88571 202.810854 1041.11143 202.810854 1041.56286 202.585801 1041.56286 202.360749 1041.78857 202.135697 1042.01429 201.910645 1042.24 201.910645 1042.91714 201.685593 1042.91714 201.46054 1043.14286 201.46054 1043.59429 201.235488 1043.59429 201.010436 1043.82 201.010436 1044.72286 200.785384 1044.72286 200.560332 1044.94857 200.560332 1045.62571 200.33528 1045.62571 200.33528 1046.07714 200.110227 1046.07714 200.110227 1047.20571 199.885175 1047.20571 199.660123 1047.43143 199.660123 1049.23714 199.435071 1049.23714 199.435071 1050.14 199.210019 1050.14 199.210019 1052.62286 199.435071 1052.62286 199.435071 1053.52571 199.660123 1053.52571 203.711062 1068.87429 203.936114 1068.87429 203.936114 1069.32571 204.161167 1069.32571 204.611271 1069.55143 210.912732 1067.74571 211.137784 1067.52 212.263045 1067.29429 212.488097 1067.06857 212.488097 1065.94 212.263045 1065.94 212.263045 1065.48857 212.037993 1065.48857 208.887262 1052.84857 208.66221 1052.84857 208.66221 1049.23714 208.887262 1049.23714 208.887262 1047.88286 209.112315 1047.88286 209.112315 1047.43143 209.337367 1047.43143 209.337367 1046.75429 209.562419 1046.75429 209.562419 1046.30286 209.787471 1046.30286 209.787471 1045.85143 210.012523 1045.85143 210.237575 1045.62571 210.237575 1045.17429 210.462628 1045.17429 210.68768 1044.94857 210.912732 1044.72286 211.137784 1044.49714 211.362836 1044.27143 211.587889 1044.04571 211.812941 1043.82 212.037993 1043.59429 212.263045 1043.36857 212.488097 1043.14286 212.713149 1042.91714 212.938202 1042.69143 213.163254 1042.46571 213.388306 1042.24 213.613358 1042.01429 213.83841 1041.78857 214.063463 1041.56286 214.288515 1041.33714 214.513567 1041.11143 214.738619 1040.88571 214.963671 1040.66 215.188723 1040.43429 215.638828 1040.20857 215.86388 1039.98286 216.088932 1039.75714 216.313984 1039.53143 216.539036 1039.30571 216.764089 1039.08 217.214193 1038.85429 217.439245 1038.62857 217.664297 1038.40286 217.88935 1038.17714 218.339454 1037.95143 218.564506 1037.72571 218.789558 1037.5 219.01461 1037.27429 219.239663 1037.04857 219.464715 1036.82286 219.914819 1036.59714 220.139871 1036.37143 220.364924 1036.14571 220.589976 1035.92 220.815028 1035.69429 221.04008 1035.46857 221.265132 1035.24286 221.490184 1035.01714 221.715237 1034.79143 221.940289 1034.56571 222.165341 1034.34 222.390393 1034.11429 222.390393 1033.66286 222.615445 1033.66286 222.840498 1033.43714 223.06555 1033.21143 223.290602 1032.98571 223.290602 1032.53429 223.515654 1032.53429 223.740706 1032.30857 223.740706 1031.85714 223.965758 1031.85714 224.190811 1031.63143 224.190811 1031.18 224.415863 1031.18 224.415863 1030.72857 224.640915 1030.72857 224.640915 1030.27714 224.865967 1030.27714 224.865967 1029.82571 225.091019 1029.82571 225.091019 1029.14857 225.316072 1029.14857 225.316072 1028.69714 225.541124 1028.69714 225.541124 1027.79429 225.766176 1027.79429 225.766176 1027.34286 225.991228 1027.34286 225.991228 1023.50571 225.766176 1023.50571 225.766176 1023.05429 225.541124 1023.05429 225.541124 1021.7 225.316072 1021.7 225.316072 1021.24857 225.091019 1021.24857 225.091019 1020.12 224.865967 1020.12 224.865967 1019.66857 224.640915 1019.66857 224.640915 1018.76571 224.415863 1018.76571 224.190811 1018.54 224.190811 1017.63714 223.965758 1017.63714 223.740706 1017.41143 223.740706 1016.73429 223.515654 1016.73429 223.515654 1016.28286 223.290602 1016.28286 223.290602 1015.60571 223.06555 1015.60571 222.840498 1015.38 222.840498 1014.70286 222.615445 1014.70286 222.615445 1014.25143 222.390393 1014.25143 222.390393 1013.8 222.165341 1013.8 222.165341 1013.34857 221.940289 1013.34857 221.940289 1012.89714 221.715237 1012.89714 221.715237 1012.44571 221.490184 1012.44571 221.490184 1011.99429 221.265132 1011.99429 221.04008 1011.76857 221.04008 1011.09143 220.815028 1011.09143 220.589976 1010.86571 220.589976 1010.41429 220.364924 1010.41429 220.139871 1010.18857 220.139871 1009.73714 219.914819 1009.73714 219.689767 1009.51143 219.689767 1009.06 219.464715 1009.06 219.239663 1008.83429 219.239663 1008.38286 219.01461 1008.38286 218.789558 1008.15714 218.789558 1007.70571 218.564506 1007.70571 218.339454 1007.48 218.339454 1007.02857 218.114402 1007.02857 217.88935 1006.80286 217.664297 1006.57714 217.439245 1006.35143 217.439245 1005.9 217.214193 1005.9 216.989141 1005.67429 216.989141 1005.22286 216.764089 1005.22286 216.539036 1004.99714 216.313984 1004.77143 216.088932 1004.54571 215.86388 1004.32 215.638828 1004.09429 215.413776 1003.86857 215.188723 1003.64286 215.188723 1003.19143 214.963671 1003.19143 214.738619 1002.96571 214.513567 1002.74 214.288515 1002.51429 214.063463 1002.28857 213.83841 1002.06286 213.613358 1001.83714 213.163254 1001.61143 212.938202 1001.38571 212.713149 1001.16 212.488097 1000.93429 212.263045 1000.70857 212.037993 1000.48286 211.587889 1000.25714 211.137784 1000.03143 210.68768 999.805714 210.462628 999.58 209.787471 999.354286 209.562419 999.128571 208.66221 998.902857 208.437158 998.677143 207.311897 998.451429 206.636741 998.225714 203.711062 998 163.426722 1009.96286 163.20167 1009.96286 162.751565 1010.18857"></polygon>
        </g>
    </g>
</svg>