<svg xmlns="http://www.w3.org/2000/svg" viewBox="0 0 20 16">
  <path d="M20,1.9c-0.7,0.3-1.5,0.5-2.3,0.6c0.8-0.5,1.5-1.3,1.8-2.2c-0.8,0.5-1.6,0.8-2.6,1C16,0.5,15,0,13.8,0c-2.2,0-4.1,1.8-4.1,4
	c0,0.3,0,0.6,0.1,0.9C6.4,4.8,3.5,3.2,1.4,0.7C1,1.3,0.8,2,0.8,2.8c0,1.4,0.7,2.6,1.8,3.4C2,6.1,1.3,5.9,0.8,5.6c0,0,0,0,0,0.1
	c0,2,1.4,3.6,3.2,4c-0.3,0-0.7,0.1-1,0.1s-0.5,0-0.8-0.1c0.5,1.6,2,2.8,3.9,2.8c-1.4,1.1-3.1,1.7-5.1,1.7c-0.3,0-0.6,0-1-0.1
	C1.8,15.3,4,16,6.3,16C13.8,16,18,9.8,18,4.5c0-0.2,0-0.3,0-0.5C18.8,3.4,19.4,2.7,20,1.9z"/>
</svg>
