<svg xmlns="http://www.w3.org/2000/svg" viewBox="0 0 400 400">
  <g fill="none" fill-rule="evenodd">
    <circle cx="200" cy="200" r="200" fill="#000"/>
    <path fill="#FFF" d="M126.421 240.935h-2.516c-4.703 8.05-12.01 12.457-20.239 12.457-12.849 0-22.503-11.015-22.503-25.845 0-14.321 8.395-23.813 20.992-23.813 9.321 0 16.123 4.746 19.23 13.474h2.52l-.424-13.982h-2.096c-.42.425-.842.593-1.511.593-2.435 0-8.903-2.796-18.055-2.796-21.244 0-30.819 14.32-30.819 28.727 0 15.17 10.58 26.694 30.147 26.694 7.138 0 12.93-1.95 16.71-1.95 1.26 0 1.848.169 2.856.594l5.708-14.153zM170.759 252.191v-2.079c-1.759.333-2.679.498-3.514.498-1.756 0-2.09-.579-2.09-3.99V220.17h-2.091l-13.048 1.995v1.997c6.69.75 7.193 1.497 7.193 4.992v17.05c-4.35 2.994-6.859 4.158-9.2 4.158-4.85 0-6.442-3.408-6.442-7.901v-22.291h-2.09l-11.04 2.495v1.83c5.019.996 5.185 1.164 5.185 5.406v14.807c0 6.404 2.844 10.73 8.95 10.73 3.764 0 7.109-1.416 14.637-6.32v6.317h1.925l11.625-3.243zM172.774 203.635c6.229.504 6.57 1.431 6.57 5.298v36.582c0 5.13-1.196 6.812-6.57 6.812v2.102h21.16v-2.102c-5.203 0-6.483-1.431-6.483-6.223V198h-2.475l-12.202 3.533v2.102zM220.283 246.906c-1.613 3.043-3.057 4.224-5.432 4.224-3.733 0-5.006-3.548-5.006-7.772v-18.407h10.438l1.866-4.392h-12.304v-9.46h-2.038c-1.695 5.744-4.667 9.545-9.841 12.247v1.605h3.818v19.421c0 7.687 4.073 11.065 9.756 11.065 4.159 0 8.146-1.69 10.61-7.093l-1.867-1.438zM266.487 252.191v-2.079c-1.756.333-2.676.498-3.512.498-1.756 0-2.09-.579-2.09-3.99V220.17h-2.094l-13.049 1.995v1.997c6.694.75 7.197 1.497 7.197 4.992v17.05c-4.35 2.994-6.86 4.158-9.2 4.158-4.854 0-6.443-3.408-6.443-7.901v-22.291h-2.09l-11.041 2.495v1.83c5.016.996 5.185 1.164 5.185 5.406v14.807c0 6.404 2.845 10.73 8.95 10.73 3.765 0 7.11-1.416 14.636-6.32v6.317h1.925l11.626-3.243zM275.347 227.552v18.581c0 4.895-1.829 6.223-5.837 6.223v2.073h22.824v-2.073c-7.144.08-8.712-.58-8.712-6.555v-13.77c1.832-3.567 3.66-5.308 5.665-5.308 1.13 0 3.657 1.574 7.578 2.322l2.874-6.803c-5.227-.994-6.88-2.073-8.187-2.073-2.353 0-4.358 2.157-7.754 8.295h-.176v-8.295h-2.177l-11.935 3.65v1.66l5.837 2.073zM331.976 244.79c-3.546 3.907-7.007 5.82-10.635 5.82-7.427 0-12.577-6.152-12.577-15.388H334v-2.328c-2.953-1.245-1.436-5.157-5.317-8.982-2.28-2.246-5.906-3.743-10.465-3.743-10.13 0-17.47 7.733-17.47 18.547 0 7.737 3.883 16.72 15.696 16.72 7.342 0 12.914-2.91 17.133-9.149l-1.601-1.496z"/>
    <path fill="#000" d="M307.8 233.268c.876-7.39 3.682-11.084 8.324-11.084 4.472 0 7.098 3.782 7.8 11.084H307.8z"/>
    <g>
      <path fill="#FFF" d="M78.957 181.082c0 5.658-.837 6.84-7.957 6.84v2.28h26.052c24.542 0 33.17-15.369 33.17-27.782 0-6.334-2.01-12.748-7.205-17.986-5.109-5.15-14.238-7.43-26.884-7.43-3.184 0-7.455 0-11.98.167-3.517.17-10.719.506-13.15.506v2.28c6.365-.082 7.957 1.268 7.957 7.432v33.693h-.003z"/>
      <path fill="#000" d="M89.068 140.184c2.046-.169 4.586-.169 5.977-.169 9.582 0 14.739 1.931 18.834 6.127 4.994 5.122 6.305 11.92 6.305 17.963 0 5.876-1.394 12.929-6.387 18.048-3.768 3.862-8.845 6.042-18.67 6.042-5.321 0-6.06-.754-6.06-6.042v-41.969z"/>
      <path fill="#FFF" d="M164.4 179.598c-3.426 3.89-6.766 5.797-10.273 5.797-7.173 0-12.144-6.129-12.144-15.329h24.374v-2.319c-2.855-1.24-1.388-5.136-5.139-8.947-2.199-2.238-5.703-3.729-10.107-3.729-9.78 0-16.874 7.704-16.874 18.476 0 7.706 3.75 16.656 15.163 16.656 7.091 0 12.471-2.899 16.546-9.114l-1.547-1.491z"/>
      <path fill="#000" d="M142.267 168.12c.872-7.362 3.664-11.041 8.291-11.041 4.451 0 7.07 3.768 7.769 11.041h-16.06z"/>
      <path fill="#FFF" d="M174.42 190.2h1.679c.158-.411.878-.742 1.514-.742.64 0 1.279.166 2.157.33.957.165 2.076.331 3.594.331 6.228 0 11.098-4.215 11.098-9.67 0-10.168-14.772-12.482-14.772-18.93 0-2.232 1.837-3.884 4.152-3.884 3.274 0 5.59 2.728 6.629 7.685h1.756v-9.092c-2.954-.826-5.27-1.157-7.426-1.157-6.468 0-11.26 3.968-11.26 9.423 0 8.681 14.534 12.401 14.534 18.847 0 2.727-1.996 4.546-4.792 4.546-3.913 0-7.106-3.223-8.063-8.18h-1.837l1.037 10.496v-.003zM199.48 159.371c6.202.828 6.367 1.572 6.367 3.314v18.56c0 4.473-1.796 6.048-6.366 5.883v2.071h20.075v-2.07c-4.815 0-5.957-1.327-5.957-6.796v-26.265h-1.795l-12.323 3.48v1.823zM204.5 140.516c0 2.729 2.208 4.518 5.388 4.518 3.358 0 5.653-1.875 5.653-4.602 0-2.643-2.206-4.432-5.389-4.432-3.444 0-5.652 1.789-5.652 4.516zM261.714 156.499l-11.34 1.597c-2.688-2.016-6.048-3.025-10.247-3.025-9.161 0-15.796 5.462-15.796 12.941 0 5.297 2.52 8.656 7.98 10.926-.252 1.26-8.484 1.679-8.484 6.385 0 3.028 2.521 5.546 6.89 6.892-2.354 2.773-8.15 4.706-8.15 9.58 0 5.127 5.293 7.48 14.197 7.48 15.627 0 24.11-7.814 24.11-14.118 0-3.951-2.772-8.321-11.258-8.321-14.112 0-18.396-.337-18.396-3.192 0-1.094.84-2.018 3.611-3.867 1.581.284 3.184.425 4.79.421 8.314 0 15.119-5.715 15.119-12.689 0-1.597-.25-3.025-1.007-4.958 3.024.84 5.463 1.26 7.98 1.26V156.5z"/>
      <path fill="#000" d="M232.605 166.085c0-5.452 2.714-9.006 7.178-9.006 4.64 0 7.878 4.627 7.878 10.907 0 5.533-2.803 9.168-7.178 9.168-4.64 0-7.878-4.708-7.878-11.069zM232.821 192.213c2.317.437 4.966.7 9.272.789l6.21.174c3.643.089 5.38 1.318 5.38 3.953 0 4.918-5.628 9.134-12.086 9.134-6.542 0-12.004-3.864-12.004-8.345 0-2.458 1.655-3.864 3.228-5.708v.003z"/>
      <path fill="#FFF" d="M263.721 160.772c5.25.912 5.5 1.157 5.5 5.454v14.793c0 4.461-1.419 6.115-5.5 6.115v2.065h18.998v-2.065c-4.417 0-5.583-1.737-5.583-6.363V164.74c4.667-3.222 7.668-4.876 10.5-4.876 3.999 0 5.667 3.141 5.667 9.34 0 15.535-.586 17.93-6.5 17.93v2.066h20.08v-2.065c-4.499 0-6.25-1.487-6.25-5.287 0-2.73.585-6.86.585-13.553 0-9.09-2.915-13.223-8.666-13.223-3.835 0-8 2.232-15.416 6.941v-6.94h-2.083l-11.332 3.635v2.065z"/>
    </g>
  </g>
</svg>