<svg xmlns="http://www.w3.org/2000/svg" viewBox="0 0 157 15">
  <path fill="#000" fill-rule="evenodd" d="M.612 13.759a.64.64 0 0 1 .07-.306.62.62 0 0 1 .185-.214.765.765 0 0 1 .265-.12 1.258 1.258 0 0 1 .621.004c.1.028.201.042.307.042h.092a1.58 1.58 0 0 0 .487-.543c.121-.22.194-.45.218-.69.044-.353.062-.694.056-1.021a12.033 12.033 0 0 1 .037-1.15l.023-.186a7.577 7.577 0 0 0 .033-.297v-.51c-.031-.402-.064-.801-.098-1.197a14.08 14.08 0 0 1-.05-1.206V5.298a.322.322 0 0 0 .064-.135.749.749 0 0 0 .019-.171.985.985 0 0 0-.01-.14.917.917 0 0 1-.009-.13c0-.061.007-.104.019-.13 0-.018.006-.052.018-.101.013-.05.025-.104.038-.163.012-.058.024-.113.037-.162a.512.512 0 0 0 .018-.102v-.111c0-.025-.003-.08-.009-.167a6.941 6.941 0 0 1-.014-.283 7.49 7.49 0 0 0-.014-.288 3.713 3.713 0 0 1-.01-.162v-.594a.472.472 0 0 0-.073-.107 5.678 5.678 0 0 0-.14-.162 1.68 1.68 0 0 0-.148-.148c-.05-.044-.083-.065-.102-.065h-1.29a.697.697 0 0 1-.074-.065 1.061 1.061 0 0 0-.074-.051.57.57 0 0 1-.204-.25.852.852 0 0 1-.028-.247c0-.18.067-.298.2-.357s.28-.088.44-.088c.08 0 .158.01.232.032a.792.792 0 0 0 .223.033c.123 0 .243-.022.357-.065.114-.043.233-.065.357-.065 0-.006.016-.01.047-.014a1.2 1.2 0 0 1 .116-.005h.524c.05 0 .094.002.134.005.04.003.067.008.08.014a20.004 20.004 0 0 1 .51.032A20.004 20.004 0 0 0 4.61.92h2.05a.634.634 0 0 1 .176.097c.062.047.12.1.172.163a1.4 1.4 0 0 1 .135.185.333.333 0 0 1 .055.167.138.138 0 0 1-.037.102.233.233 0 0 1-.093.056.705.705 0 0 1-.116.028c-.04.006-.072.012-.097.018a.761.761 0 0 0-.125.116c-.034.04-.07.08-.107.116a.464.464 0 0 1-.12.088.398.398 0 0 1-.177.033c-.05 0-.102-.003-.158-.01a.27.27 0 0 1-.148-.064h-.835c-.087 0-.176.041-.269.125a.49.49 0 0 0-.19.38 2.766 2.766 0 0 0-.005.163v.26c0 .364.025.723.074 1.076.05.352.075.71.075 1.076v.139a34.233 34.233 0 0 1-.032.714 34.233 34.233 0 0 0-.033.715l.009.13c.006.074.014.154.023.24a9.2 9.2 0 0 1 .033.39 36.295 36.295 0 0 1-.032.742 34.278 34.278 0 0 0-.033.752v1.011c-.007.05-.013.129-.019.237a75.494 75.494 0 0 0-.037.663c-.006.1-.01.167-.01.204a.363.363 0 0 0-.05.102.454.454 0 0 0-.033.102v.084c0 .16.011.328.033.5.021.174.06.344.116.511.055.167.13.323.222.469.093.145.21.267.353.366h.083a.677.677 0 0 0 .172-.019c.046-.012.113-.027.2-.046H7.69c.037-.006.1-.012.19-.018.09-.007.186-.014.288-.024.102-.009.2-.017.292-.023.093-.006.158-.012.195-.018.025 0 .07-.01.139-.028a.804.804 0 0 1 .12-.028h.075c.043 0 .091.012.144.037.052.025.085.059.097.102.216.031.419.057.608.079.188.022.382.032.58.032a.735.735 0 0 0 .273-.046.75.75 0 0 0 .209-.125 1.1 1.1 0 0 0 .172-.186c.052-.07.11-.144.171-.218.013-.018.051-.065.116-.139l.209-.237a9.832 9.832 0 0 0 .315-.375.38.38 0 0 0 .08-.223c.002-.037.007-.076.013-.116a.685.685 0 0 1 .037-.134l.065-.065c.037-.037.062-.056.074-.056l.065-.102a.29.29 0 0 0 .047-.093.614.614 0 0 0 .027-.083c.013-.044.028-.09.047-.14.018-.049.034-.097.046-.143a.605.605 0 0 1 .028-.088.655.655 0 0 1 .19-.293c.096-.09.178-.162.246-.218h.056c.117.037.204.09.26.158a.54.54 0 0 1 .11.232c.02.087.027.18.024.278a1.91 1.91 0 0 0 .023.357c.006.035.014.07.023.107.01.037.017.071.024.102l.009.047v.102c0 .154-.022.301-.065.44a2 2 0 0 0-.084.422v1.16a.449.449 0 0 1-.115.27.379.379 0 0 1-.265.11 1.77 1.77 0 0 1-.185.02c-.093.005-.19.013-.293.022-.102.01-.2.017-.292.023a2.311 2.311 0 0 0-.195.019H10.15a.284.284 0 0 0-.097.032.284.284 0 0 1-.097.033 8.57 8.57 0 0 0-.835.065h-.14a3.868 3.868 0 0 1-.148-.032 1.68 1.68 0 0 0-.176-.033 2.355 2.355 0 0 0-.25-.014c-.13-.003-.27-.008-.418-.014a22.237 22.237 0 0 0-.733-.018H7.05c-.093 0-.246-.002-.46-.005a49.698 49.698 0 0 0-.714-.005c-.263 0-.529-.001-.798-.004A62.638 62.638 0 0 0 4.37 14h-.463c-.408 0-.815.022-1.22.065-.405.043-.818.065-1.239.065h-.51a.554.554 0 0 1-.246-.125c-.052-.053-.079-.135-.079-.246zm17.209.176c-.328 0-.651.014-.97.042-.318.028-.638.042-.96.042h-.065a10.686 10.686 0 0 0-.278-.042 1.393 1.393 0 0 1-.32-.084.789.789 0 0 1-.26-.162.367.367 0 0 1-.107-.278c0-.025.003-.06.01-.102a.153.153 0 0 1 .055-.102c.013-.019.044-.034.093-.047a.512.512 0 0 1 .102-.018c.173-.019.346-.031.52-.038a3.48 3.48 0 0 0 .51-.055c.167-.031.326-.084.478-.158.151-.074.289-.185.413-.334-.007-.272.003-.54.027-.802.025-.263.037-.525.037-.784 0-.105-.01-.201-.032-.288a1.105 1.105 0 0 1-.032-.269v-.167c0-.018.003-.05.009-.093l.023-.144a4.477 4.477 0 0 0 .032-.227V8.434a1.68 1.68 0 0 1 .032-.176 3.868 3.868 0 0 0 .033-.15l.005-.097c.003-.052.005-.112.005-.18 0-.068.001-.137.004-.205.003-.068.005-.12.005-.157l-.005-.135a4.195 4.195 0 0 1-.004-.2c0-.067-.002-.13-.005-.19a2.822 2.822 0 0 1-.005-.115.77.77 0 0 0-.023-.14.709.709 0 0 0-.042-.139v-.074c0-.099.025-.192.075-.278a.607.607 0 0 0 .074-.306V5.78a.706.706 0 0 0-.019-.162.507.507 0 0 0-.065-.153v-.65c0-.222.014-.439.042-.649.028-.21.042-.42.042-.63v-.13a.158.158 0 0 1-.023-.052l-.028-.083a1.074 1.074 0 0 1-.023-.08l-.01-.036c0-.031.011-.08.033-.144a.385.385 0 0 1 .05-.116V2.83a.507.507 0 0 0-.129-.325.612.612 0 0 0-.269-.204 5.767 5.767 0 0 1-.297-.046 76.726 76.726 0 0 1-.886-.158 8.114 8.114 0 0 1-.292-.055.603.603 0 0 1-.339-.177c-.077-.086-.116-.21-.116-.37 0-.13.054-.231.163-.302.108-.071.233-.124.375-.158.143-.034.288-.054.436-.06.149-.007.263-.01.344-.01h.092c.025 0 .085.007.181.019.096.012.198.025.306.037.109.012.21.025.302.037.093.012.152.019.176.019.031.012.09.018.177.018h.547a.76.76 0 0 0 .195-.018.483.483 0 0 0 .227.074c.084.006.147.01.19.01.254 0 .498-.026.733-.075a3.74 3.74 0 0 1 .77-.074h.52c.074.05.151.09.232.125.08.034.156.071.227.111.071.04.13.092.176.153.047.062.07.149.07.26 0 .05-.01.104-.028.162a.778.778 0 0 1-.079.172.493.493 0 0 1-.125.14.258.258 0 0 1-.158.055 4.618 4.618 0 0 1-.835.074 5.473 5.473 0 0 1-.909-.074c-.012 0-.023.014-.033.042a.229.229 0 0 0-.013.07c0 .012.003.035.009.069.006.034.01.068.014.102a.923.923 0 0 0 .014.097l.009.047v.148c0 .068-.01.13-.033.186l-.064.167-.065.162a.446.446 0 0 0-.033.172v.13a.443.443 0 0 1 .042.11c.015.057.03.09.042.103v.51c.006.031.015.059.027.084a.517.517 0 0 1 .038.111c.012.167.023.325.032.473.01.149.014.312.014.492 0 .198-.033.394-.097.589a1.909 1.909 0 0 0-.098.608v.018a2.491 2.491 0 0 1 .084.186c.018.043.034.085.046.125.012.04.019.066.019.079v.334c0 .235-.025.465-.075.691-.05.226-.074.456-.074.691 0 .303.014.602.042.895.028.294.042.59.042.886v.798c-.013.031-.027.088-.042.172a.545.545 0 0 1-.042.153.84.84 0 0 1-.032.135.84.84 0 0 0-.033.134 8.065 8.065 0 0 1 .028.274l.019.185c.006.059.012.1.018.125.019.087.05.155.093.205.043.049.093.088.148.116a.688.688 0 0 0 .186.06c.068.012.14.028.213.046.006.013.03.025.07.037l.125.042c.043.016.085.03.125.042.04.012.067.021.08.028.03.006.087.012.17.018a28.448 28.448 0 0 0 .544.037c.086.007.148.01.185.01a.274.274 0 0 1 .107.11.363.363 0 0 1 .023.14v.084c0 .142-.026.247-.079.315a2.295 2.295 0 0 1-.236.25c-.019 0-.044.011-.075.033a.192.192 0 0 1-.055.032h-.084c-.464-.03-.923-.074-1.378-.13a11.325 11.325 0 0 0-1.377-.083zm7.263 0h-1.753c-.025 0-.051-.02-.08-.06a.97.97 0 0 1-.078-.14 4.552 4.552 0 0 1-.065-.143.41.41 0 0 1-.028-.074c0-.124.045-.235.135-.334.09-.1.187-.149.292-.149.03 0 .093-.003.185-.01a4.325 4.325 0 0 1 .557 0c.087.007.145.01.176.01a1.027 1.027 0 0 1 .13-.074.237.237 0 0 0 .079-.065 25.646 25.646 0 0 1 .227-.241.648.648 0 0 0 .075-.084c0-.03.003-.088.009-.171.006-.084.014-.174.023-.27.01-.095.017-.186.023-.273a2.98 2.98 0 0 0 .01-.186c.012-.012.026-.061.041-.148a.768.768 0 0 1 .042-.167v-.585c0-.012.006-.04.019-.083l.037-.14c.012-.049.024-.095.037-.138a3.42 3.42 0 0 0 .232-1.447.585.585 0 0 0-.042-.121.466.466 0 0 1-.042-.14V8.11c0-.278.01-.557.028-.835.019-.278.059-.55.12-.816a2.915 2.915 0 0 0 .056-.186l.037-.125a.358.358 0 0 0 .019-.08c0-.03.008-.107.023-.231.016-.124.031-.258.047-.404.015-.145.03-.283.046-.412.015-.13.023-.214.023-.251a3.259 3.259 0 0 1 .032-.213 3.259 3.259 0 0 0 .033-.214.255.255 0 0 0-.018-.07.745.745 0 0 0-.047-.101 3.088 3.088 0 0 1-.05-.098.223.223 0 0 1-.024-.055c0-.019.01-.056.032-.112l.042-.102a.588.588 0 0 0 .019-.088l.018-.12a4.169 4.169 0 0 1 .028-.172c0-.025-.003-.067-.01-.125a13.492 13.492 0 0 1-.018-.19 13.495 13.495 0 0 0-.018-.19 1.58 1.58 0 0 0-.019-.135.445.445 0 0 0-.339-.167A6.416 6.416 0 0 1 25 2.589a.304.304 0 0 1-.074-.019 1.132 1.132 0 0 1-.116-.046 1.132 1.132 0 0 0-.116-.046.304.304 0 0 0-.074-.019 4.113 4.113 0 0 0-.362-.084 1.634 1.634 0 0 1-.283-.074.53.53 0 0 1-.218-.153.98.98 0 0 1-.167-.33c0-.018.019-.04.056-.069a.804.804 0 0 0 .074-.06h.195a.651.651 0 0 0 .111-.019c.056-.012.118-.027.186-.046s.13-.034.185-.046a.651.651 0 0 1 .112-.019h1.076a1.211 1.211 0 0 1 .172.032c.034.01.066.018.097.024l.046.009h1.364c.21.087.382.203.515.348.133.145.261.308.385.487.006.012.02.03.042.056l.07.079a.47.47 0 0 1 .06.083.15.15 0 0 1 .023.06c.012.006.025.044.037.112a.356.356 0 0 0 .046.139c.05.13.116.252.2.366a.913.913 0 0 1 .162.395 5.061 5.061 0 0 0 .032.292 5.061 5.061 0 0 1 .033.301c.031.087.076.186.135.297.058.111.1.204.125.278 0 .013.01.056.032.13a.864.864 0 0 1 .033.13.464.464 0 0 0 .046.065c.025.031.053.064.084.098.03.034.058.066.083.097.025.03.04.05.047.056a.44.44 0 0 1 .023.083 2.502 2.502 0 0 1 .042.371c.061.21.143.391.245.543.102.152.197.332.283.543a8.028 8.028 0 0 1 .028.223 2.502 2.502 0 0 1 .019.231c0 .013.01.054.032.126a.783.783 0 0 1 .033.125.288.288 0 0 0 .12.162c.056.034.115.068.177.102a.805.805 0 0 1 .162.116c.046.043.07.105.07.186v.157c0 .013-.011.053-.033.121a.707.707 0 0 0-.032.12c0 .007.004.027.013.06.01.035.02.072.033.112a6.472 6.472 0 0 1 .065.228c.018.043.043.094.074.153.031.058.067.116.107.171.04.056.085.104.134.144.05.04.1.06.149.06a.126.126 0 0 0 .093-.037.283.283 0 0 0 .06-.093l.046-.115a.398.398 0 0 1 .06-.107c.069-.08.157-.166.265-.255a.882.882 0 0 0 .246-.32l.018-.093.019-.084a.273.273 0 0 0 .01-.065 2.008 2.008 0 0 1 .222-.542 3.15 3.15 0 0 1 .144-.232c.052-.078.106-.166.162-.265a1.49 1.49 0 0 0 .167-.357c.037-.12.09-.236.158-.348a.761.761 0 0 0 .046-.06c.025-.034.053-.07.084-.107a6.643 6.643 0 0 0 .13-.157.316.316 0 0 0 .046-.112 2.548 2.548 0 0 0 .055-.292.35.35 0 0 1 .028-.107c.093-.266.208-.515.344-.747.136-.231.26-.48.37-.746.05-.105.083-.221.098-.348a1.64 1.64 0 0 1 .079-.348c.019-.025.051-.088.097-.19.047-.102.095-.212.144-.33.05-.117.098-.225.144-.324.046-.1.076-.164.088-.195.006-.019.016-.051.028-.098a.45.45 0 0 0 .018-.097v-.046a.21.21 0 0 0-.023-.08.215.215 0 0 1-.023-.069V2.2a5.31 5.31 0 0 1 .14-.26c.049-.086.104-.165.166-.236a.853.853 0 0 1 .53-.283 15.045 15.045 0 0 0 .594.01 1.433 1.433 0 0 0 .3-.024c.04-.01.084-.022.13-.037l.125-.042a5.358 5.358 0 0 1 .63-.13 4.442 4.442 0 0 1 .753-.032c.062.003.122.004.18.004a2.395 2.395 0 0 1 .237.01c.068 0 .144.015.228.046a.933.933 0 0 1 .422.32c.05.071.074.147.074.227 0 .05-.02.103-.06.158a1.175 1.175 0 0 1-.31.283.281.281 0 0 1-.131.051c-.105 0-.204-.01-.297-.032a1.304 1.304 0 0 0-.297-.033c-.105 0-.21.008-.315.023-.105.016-.22.051-.344.107a.417.417 0 0 0-.176.167.907.907 0 0 0-.097.246c-.022.09-.034.184-.037.283a8.684 8.684 0 0 0-.005.269v.158c0 .074.003.134.01.18a.942.942 0 0 0 .027.135c.013.043.026.087.042.13.015.043.03.099.042.167 0 .03.001.083.004.158.003.074.005.15.005.227 0 .077.001.152.005.223.003.07.004.119.004.143 0 .57-.015 1.134-.046 1.694s-.04 1.124-.028 1.693c0 .012-.01.043-.032.092a.355.355 0 0 0-.033.093v.074c.031.161.062.331.093.51.03.18.046.353.046.52 0 .161-.023.311-.07.45-.046.14-.069.29-.069.45v.111c0 .05.003.095.01.135.005.04.024.085.055.134v.107c0 .053.002.108.005.167.003.059.004.115.004.167v.255c0 .062-.001.122-.004.181a3.032 3.032 0 0 0-.005.158v.079c0 .006-.01.043-.032.111a.57.57 0 0 0-.033.14v.24c0 .019.017.062.051.13.034.068.057.112.07.13a.497.497 0 0 0 .05.07c.028.034.056.07.084.107a1.52 1.52 0 0 0 .125.148c.013.006.027.028.042.065a.254.254 0 0 1 .023.074.506.506 0 0 1 .037.042.057.057 0 0 0 .047.023h.25c.007 0 .03.006.07.019l.125.037c.043.012.084.024.12.037a.304.304 0 0 0 .075.018c.006.007.028.013.065.019.037.006.076.014.116.023.04.01.079.017.116.023a.308.308 0 0 1 .074.019c.019.006.046.017.084.032l.12.051a1.371 1.371 0 0 1 .176.093.57.57 0 0 0 .01.074l.009.065c0 .087-.04.163-.12.228A.43.43 0 0 1 38.6 14h-3.08c-.03 0-.079.01-.144.032a.637.637 0 0 1-.116.033h-.13a.319.319 0 0 0-.06.018l-.107.038a1.857 1.857 0 0 0-.102.037.258.258 0 0 1-.055.018h-.66c-.08 0-.163-.04-.25-.12-.086-.08-.13-.164-.13-.25v-.066c.044 0 .121-.01.233-.032.11-.022.188-.033.231-.033.013 0 .042-.01.089-.032a.312.312 0 0 1 .088-.033.475.475 0 0 0 .07-.009l.106-.018a.647.647 0 0 0 .097-.024.158.158 0 0 0 .051-.023.296.296 0 0 0 .172-.153 1.1 1.1 0 0 0 .093-.25c.021-.09.035-.18.042-.27.006-.09.009-.165.009-.227.068-.396.116-.791.144-1.187.027-.396.066-.798.116-1.206a34.676 34.676 0 0 1 .019-.858 35.249 35.249 0 0 0 .018-.859 29.216 29.216 0 0 0-.019-1.02 43.022 43.022 0 0 1-.023-.97c-.003-.12-.008-.249-.014-.385s-.01-.266-.014-.39a3.535 3.535 0 0 0-.014-.268 1.335 1.335 0 0 0-.07-.283.933.933 0 0 0-.074-.158c-.027-.046-.054-.07-.078-.07-.056 0-.1.014-.135.042a.441.441 0 0 0-.088.098 1.12 1.12 0 0 0-.07.12.424.424 0 0 1-.079.112.384.384 0 0 1-.05.064 2.71 2.71 0 0 1-.205.2.497.497 0 0 1-.07.05.18.18 0 0 1-.022.075.18.18 0 0 0-.024.074 3.128 3.128 0 0 1-.264.478 2.95 2.95 0 0 0-.264.487c-.056.161-.1.33-.135.506a5.44 5.44 0 0 1-.125.515.227.227 0 0 1-.079.167.294.294 0 0 0-.097.157.178.178 0 0 0-.024.06 1.08 1.08 0 0 0-.023.107 7.374 7.374 0 0 1-.028.167l-.074.075a4.531 4.531 0 0 1-.12.116c-.044.04-.086.08-.126.12a.472.472 0 0 0-.07.08c-.043.036-.07.1-.083.19a.67.67 0 0 1-.046.19 1.634 1.634 0 0 0-.047.194 1.371 1.371 0 0 0-.074.088 1.371 1.371 0 0 1-.074.089c-.062.16-.105.326-.13.496-.025.17-.065.335-.12.496-.02.031-.042.08-.07.144a6.92 6.92 0 0 0-.084.204 4.595 4.595 0 0 1-.125.292c0 .013-.015.05-.046.112s-.064.13-.098.204a4.414 4.414 0 0 1-.171.334 2.052 2.052 0 0 1-.019.213 8.029 8.029 0 0 1-.028.214c0 .03-.01.078-.032.143a.637.637 0 0 0-.033.116 1.64 1.64 0 0 0-.078.163 4.2 4.2 0 0 1-.116.24 5.442 5.442 0 0 0-.116.237.936.936 0 0 1-.08.149 1.87 1.87 0 0 0-.203.13.384.384 0 0 1-.232.074c-.08 0-.161-.039-.241-.116a1.391 1.391 0 0 1-.219-.274 2.303 2.303 0 0 1-.167-.324 1.324 1.324 0 0 1-.088-.279 7.631 7.631 0 0 1-.139-.58 2.607 2.607 0 0 0-.186-.58 37.947 37.947 0 0 1-.325-.575 2.678 2.678 0 0 1-.25-.598 6.676 6.676 0 0 0-.213-.635 9.077 9.077 0 0 0-.39-.919 7.028 7.028 0 0 1-.38-.946c-.006-.006-.012-.028-.018-.065a1.298 1.298 0 0 1-.014-.12 10.269 10.269 0 0 0-.014-.196.98.98 0 0 1-.075-.097.98.98 0 0 0-.074-.097.348.348 0 0 0-.028-.089.348.348 0 0 1-.027-.088.774.774 0 0 1-.028-.07 2.494 2.494 0 0 0-.042-.106.97.97 0 0 0-.079-.148 2.502 2.502 0 0 0-.019-.241 8.028 8.028 0 0 0-.018-.14.794.794 0 0 1-.01-.083.58.58 0 0 1-.041-.08 21.315 21.315 0 0 0-.051-.11 1.865 1.865 0 0 0-.102-.19l-.195-.195a1.017 1.017 0 0 1-.14-.265 3.645 3.645 0 0 0-.124-.301.829.829 0 0 0-.177-.25.405.405 0 0 0-.292-.103h-.055c-.031.111-.051.213-.06.306a8.916 8.916 0 0 0-.038.552c-.003.096-.008.203-.014.32l-.01.042a.84.84 0 0 1-.022.084.84.84 0 0 0-.023.083l-.01.042v.102c0 .068.011.136.033.204a.731.731 0 0 1 .032.223v.055l-.093.446a2.27 2.27 0 0 0-.046.463c0 .21.023.415.07.613.046.198.07.402.07.612l-.01.037a1.075 1.075 0 0 1-.023.079.84.84 0 0 0-.033.135v.964c0 .013-.006.04-.018.084a5.931 5.931 0 0 1-.12.371v.093c0 .055.005.103.018.144.012.04.034.094.065.162v1.392a.83.83 0 0 1 .074.185l.055.204c.019.068.042.132.07.19a.38.38 0 0 0 .116.144c.13.013.29.031.478.056s.35.065.487.12a.399.399 0 0 0 .088.08.955.955 0 0 1 .088.069c.05.025.1.043.149.056.05.012.092.027.13.046a.208.208 0 0 1 .088.083.293.293 0 0 1 .032.149.333.333 0 0 1-.056.204.348.348 0 0 1-.139.111.584.584 0 0 1-.185.047c-.068.006-.133.009-.195.009-.26 0-.52-.01-.78-.033A9.38 9.38 0 0 0 26.03 14h-.24a.84.84 0 0 0-.135.032.84.84 0 0 1-.135.033 1.43 1.43 0 0 1-.209-.051 3.246 3.246 0 0 0-.134-.042.353.353 0 0 1-.093-.037zm18.934 0c-.328 0-.65.014-.97.042-.318.028-.638.042-.96.042h-.065a10.686 10.686 0 0 0-.278-.042 1.393 1.393 0 0 1-.32-.084.789.789 0 0 1-.26-.162.367.367 0 0 1-.106-.278c0-.025.003-.06.009-.102a.153.153 0 0 1 .056-.102c.012-.019.043-.034.092-.047a.512.512 0 0 1 .102-.018c.174-.019.347-.031.52-.038a3.48 3.48 0 0 0 .51-.055c.167-.031.326-.084.478-.158.151-.074.29-.185.413-.334-.006-.272.003-.54.028-.802.024-.263.037-.525.037-.784 0-.105-.011-.201-.033-.288a1.105 1.105 0 0 1-.032-.269v-.167c0-.018.003-.05.009-.093l.023-.144a4.477 4.477 0 0 0 .033-.227V8.434a1.68 1.68 0 0 1 .032-.176 3.868 3.868 0 0 0 .033-.15l.004-.097c.003-.052.005-.112.005-.18 0-.068.001-.137.005-.205.003-.068.004-.12.004-.157 0-.025-.001-.07-.004-.135a4.194 4.194 0 0 1-.005-.2c0-.067-.002-.13-.005-.19a2.822 2.822 0 0 1-.004-.115.77.77 0 0 0-.024-.14.709.709 0 0 0-.041-.139v-.074c0-.099.024-.192.074-.278a.607.607 0 0 0 .074-.306V5.78a.706.706 0 0 0-.018-.162.507.507 0 0 0-.065-.153v-.65c0-.222.014-.439.041-.649.028-.21.042-.42.042-.63v-.13a.158.158 0 0 1-.023-.052l-.028-.083a1.075 1.075 0 0 1-.023-.08l-.01-.036c0-.031.011-.08.033-.144a.385.385 0 0 1 .051-.116V2.83a.507.507 0 0 0-.13-.325.612.612 0 0 0-.269-.204 5.767 5.767 0 0 1-.297-.046 76.723 76.723 0 0 1-.886-.158 8.114 8.114 0 0 1-.292-.055.603.603 0 0 1-.338-.177c-.078-.086-.116-.21-.116-.37 0-.13.054-.231.162-.302.108-.071.233-.124.376-.158.142-.034.287-.054.436-.06.148-.007.263-.01.343-.01h.093c.024 0 .085.007.18.019.096.012.199.025.307.037.108.012.208.025.301.037.093.012.152.019.177.019.03.012.09.018.176.018h.547a.76.76 0 0 0 .195-.018.483.483 0 0 0 .227.074c.084.006.147.01.19.01.254 0 .498-.026.733-.075a3.74 3.74 0 0 1 .77-.074h.52c.074.05.151.09.232.125.08.034.156.071.227.111.071.04.13.092.176.153.047.062.07.149.07.26 0 .05-.01.104-.028.162a.778.778 0 0 1-.079.172.493.493 0 0 1-.125.14.258.258 0 0 1-.158.055 4.618 4.618 0 0 1-.835.074 5.473 5.473 0 0 1-.909-.074c-.012 0-.023.014-.032.042a.229.229 0 0 0-.014.07c0 .012.003.035.01.069.005.034.01.068.013.102a.923.923 0 0 0 .014.097l.01.047v.148c0 .068-.012.13-.033.186l-.065.167c-.022.055-.043.11-.065.162a.446.446 0 0 0-.033.172v.13a.443.443 0 0 1 .042.11c.016.057.03.09.042.103v.51c.006.031.015.059.028.084a.517.517 0 0 1 .037.111c.012.167.023.325.032.473.01.149.014.312.014.492 0 .198-.032.394-.097.589a1.909 1.909 0 0 0-.098.608v.018a2.49 2.49 0 0 1 .084.186c.018.043.034.085.046.125.013.04.019.066.019.079v.334c0 .235-.025.465-.074.691-.05.226-.075.456-.075.691 0 .303.014.602.042.895.028.294.042.59.042.886v.798c-.012.031-.026.088-.042.172a.545.545 0 0 1-.042.153.84.84 0 0 1-.032.135.84.84 0 0 0-.033.134c0 .012.004.045.01.097l.018.177.019.185c.006.059.012.1.018.125.019.087.05.155.093.205.043.049.093.088.149.116a.688.688 0 0 0 .185.06c.068.012.14.028.214.046.006.013.029.025.07.037l.124.042c.044.016.085.03.126.042.04.012.066.021.078.028.031.006.089.012.172.018a28.448 28.448 0 0 0 .543.037c.086.007.148.01.185.01a.274.274 0 0 1 .107.11.363.363 0 0 1 .023.14v.084c0 .142-.026.247-.079.315a2.295 2.295 0 0 1-.236.25c-.019 0-.043.011-.074.033a.192.192 0 0 1-.056.032h-.084c-.463-.03-.923-.074-1.377-.13a11.325 11.325 0 0 0-1.378-.083zm6.131.046a1.257 1.257 0 0 0-.18-.037.654.654 0 0 1-.144-.032.184.184 0 0 1-.098-.074.312.312 0 0 1-.032-.163.57.57 0 0 1 .018-.162c.013-.04.044-.104.093-.19a.707.707 0 0 1 .371-.26c.149-.043.299-.074.45-.093.152-.018.297-.043.436-.074a.498.498 0 0 0 .32-.213.807.807 0 0 1 .097-.186c.022-.03.04-.06.056-.088l.024-.042v-1.883a.256.256 0 0 0 .041-.088.4.4 0 0 0 .024-.088v-.66a1.921 1.921 0 0 1 .032-.19l.028-.115a.39.39 0 0 0 .014-.074v-.325a.894.894 0 0 0-.014-.172l-.028-.134a1.138 1.138 0 0 1-.032-.288v-.158a.296.296 0 0 0 .018-.07 1.68 1.68 0 0 1 .023-.106 3.868 3.868 0 0 0 .033-.148l.004-.214a15.934 15.934 0 0 1 .037-.696c.01-.105.017-.17.024-.194 0-.013.009-.047.028-.102a.455.455 0 0 0 .027-.112v-.64a48.74 48.74 0 0 0 .065-.756l.037-.468c.013-.149.019-.254.019-.316a.406.406 0 0 0 .051-.125.667.667 0 0 0 .032-.135c0-.123-.02-.252-.06-.385a1.53 1.53 0 0 0-.171-.375 1.455 1.455 0 0 0-.27-.316 1.012 1.012 0 0 0-.352-.204.467.467 0 0 0-.093-.023 4.846 4.846 0 0 1-.315-.07.36.36 0 0 1-.102-.037 1.41 1.41 0 0 0-.209-.158.445.445 0 0 1-.051-.037.323.323 0 0 1-.056-.014.832.832 0 0 0-.102-.023 3.235 3.235 0 0 1-.158-.028.625.625 0 0 1-.204-.139 2.998 2.998 0 0 1-.436-.505c-.055-.084-.083-.147-.083-.19 0-.031.003-.056.01-.075 0-.018.002-.034.008-.046a.42.42 0 0 1 .051-.088c.028-.04.06-.082.093-.126l.098-.12a.407.407 0 0 1 .074-.074c.012 0 .059-.011.139-.033a.775.775 0 0 1 .186-.032h1.428a.888.888 0 0 1 .195-.042c.05-.003.108-.005.176-.005.155 0 .29.033.404.098.114.065.218.145.31.241.093.096.182.201.265.315.084.115.169.218.255.311.006.013.031.039.074.079.044.04.09.087.14.14.05.052.095.1.139.143l.083.083c.087.1.153.208.2.325.046.118.113.226.2.325.11.136.236.255.375.357.14.102.27.218.394.348.112.124.235.281.371.473.136.192.279.385.427.58.148.195.297.373.445.533.149.161.294.273.436.334.18.328.389.631.627.91.238.278.496.538.774.779l.149.274c.055.102.114.187.176.255a.878.878 0 0 0 .209.139c.077.037.153.077.227.12a.78.78 0 0 1 .19.154.366.366 0 0 1 .088.227c.031.025.084.072.158.144.074.07.152.148.232.232l.227.236c.071.074.122.124.153.149.056.061.1.12.13.176.031.055.065.105.102.148a.398.398 0 0 0 .135.102.522.522 0 0 0 .218.037.648.648 0 0 0 .158-.018c.049-.013.08-.056.092-.13a4.394 4.394 0 0 0 .26-1.503v-.297c0-.012-.008-.054-.023-.125a.844.844 0 0 1-.023-.144c-.013-.012-.019-.059-.019-.139 0-.087.003-.175.01-.264l.009-.154a2.19 2.19 0 0 1-.028-.296 93.47 93.47 0 0 1-.037-.854 4.165 4.165 0 0 0-.019-.269c0-.037-.003-.09-.01-.158a28.527 28.527 0 0 1-.036-.422.73.73 0 0 0-.019-.125.415.415 0 0 0-.023-.111.262.262 0 0 0-.042-.093V3.025a.213.213 0 0 0-.018-.065.136.136 0 0 0-.047-.065 3.54 3.54 0 0 0-.338-.529.838.838 0 0 0-.487-.324.461.461 0 0 1-.08-.014L59.293 2a6.567 6.567 0 0 1-.116-.028.43.43 0 0 1-.125-.046 1.21 1.21 0 0 1-.083-.051 3.206 3.206 0 0 0-.08-.052.145.145 0 0 0-.046-.023 2.051 2.051 0 0 1-.301-.25c-.078-.08-.11-.204-.098-.371a.338.338 0 0 1 .065-.177.6.6 0 0 1 .26-.199l.093-.032.079-.005c.04-.003.082-.005.125-.005h.167l2.04.13c.28 0 .572-.022.878-.065a6.33 6.33 0 0 1 .886-.065c0 .006.029.013.088.019s.094.015.106.028c.075.024.14.038.195.041a.426.426 0 0 1 .14.028c.037.016.064.048.083.098a.79.79 0 0 1 .028.25.397.397 0 0 1-.08.25.674.674 0 0 1-.199.172c-.08.047-.167.085-.26.116l-.25.084c-.006 0-.05.014-.13.041-.08.028-.133.048-.157.06-.05.025-.113.06-.19.103a2.041 2.041 0 0 0-.228.148c-.05.05-.097.1-.144.153a2.85 2.85 0 0 1-.116.126.53.53 0 0 0-.125.25 2.98 2.98 0 0 0-.06.297c0 .05-.003.131-.01.246a57.332 57.332 0 0 0-.037.737 4.014 4.014 0 0 1-.018.25v.817c0 .013-.01.045-.033.098a.403.403 0 0 0-.032.097v.306c0 .142.014.272.042.39.028.117.041.253.041.408v.176a.832.832 0 0 1-.018.172.403.403 0 0 1-.065.153v1.104a.39.39 0 0 1-.01.065.906.906 0 0 0-.013.102.906.906 0 0 1-.014.102.463.463 0 0 0-.01.056v.9c0 .012-.01.054-.032.125a.624.624 0 0 0-.032.144 1.02 1.02 0 0 0-.019.12 4.66 4.66 0 0 1-.023.177c-.01.061-.017.119-.023.171a.636.636 0 0 1-.019.107v.417c0 .266.025.53.074.789.05.26.075.523.075.788v.047c0 .025-.011.073-.033.144a.667.667 0 0 0-.032.134.49.49 0 0 0-.019.163v.505c0 .08.006.136.019.167-.087.087-.172.175-.256.265a.407.407 0 0 1-.31.134.103.103 0 0 1-.047-.01 1.504 1.504 0 0 1-.492-.25 2.7 2.7 0 0 1-.375-.352 6.121 6.121 0 0 1-.33-.408 7.233 7.233 0 0 0-.468-.571 91.079 91.079 0 0 0-.487-.524 7.766 7.766 0 0 1-.77-.946 11.07 11.07 0 0 0-.612-.808c0-.024-.016-.052-.047-.083a1.69 1.69 0 0 1-.106-.084 19.873 19.873 0 0 1-.33-.278 2.587 2.587 0 0 1-.093-.083.554.554 0 0 1-.046-.08 7.32 7.32 0 0 0-.213-.375.06.06 0 0 1-.028-.028c-.019-.018-.028-.03-.028-.037-.006 0-.023-.012-.051-.037a1.52 1.52 0 0 0-.097-.079 3.21 3.21 0 0 1-.107-.083.497.497 0 0 0-.07-.051.585.585 0 0 1-.12-.144 1.402 1.402 0 0 1-.084-.167 4.404 4.404 0 0 0-.079-.176.702.702 0 0 0-.106-.163.626.626 0 0 0-.084-.093 8.41 8.41 0 0 1-.158-.162 4.016 4.016 0 0 0-.162-.162 1.091 1.091 0 0 0-.107-.093.98.98 0 0 1-.13-.195.442.442 0 0 0-.115-.111 3.462 3.462 0 0 0-.14-.088 5.123 5.123 0 0 1-.134-.084.724.724 0 0 1-.12-.097.281.281 0 0 1-.033-.06.763.763 0 0 0-.06-.107 5.464 5.464 0 0 0-.07-.102.183.183 0 0 0-.051-.056 1.317 1.317 0 0 0-.111-.14.973.973 0 0 1-.172-.115A2.726 2.726 0 0 1 54 6.035c-.031-.027-.047-.048-.047-.06a.384.384 0 0 1-.102-.083l-.325-.325a.89.89 0 0 0-.102-.093.947.947 0 0 0-.143-.148.28.28 0 0 0-.181-.056c-.068 0-.129.032-.181.097a.96.96 0 0 0-.135.228 1.715 1.715 0 0 0-.088.26.9.9 0 0 0-.032.204v.065c0 .043-.002.09-.005.143a2.766 2.766 0 0 0-.005.163v.246c0 .052.002.103.005.153s.005.092.005.13v.055a.73.73 0 0 0 .018.116c.012.059.025.12.037.186l.037.18c.013.056.019.09.019.103a.404.404 0 0 1 .018.153v.273c0 .112-.001.228-.004.348-.003.12-.005.234-.005.339 0 .105-.001.198-.004.278a5.15 5.15 0 0 0-.005.167l.01.047c.005.03.013.063.022.097a1.211 1.211 0 0 1 .033.172c0 .012.003.068.01.167.005.099.008.182.008.25 0 .155-.014.3-.041.436a2.174 2.174 0 0 0-.042.436c0 .093.01.19.032.292.022.102.033.206.033.311a.7.7 0 0 1-.033.214.731.731 0 0 0-.032.222c0 .279.052.481.158.608a.878.878 0 0 0 .408.274c.167.055.35.094.547.116.198.021.39.07.575.143.112.05.201.112.27.186.067.074.148.167.24.278a.236.236 0 0 1 .075.125c.006.04.01.089.01.144v.167a.13.13 0 0 1-.084.033 10.269 10.269 0 0 1-.242.018c-.037.003-.061.011-.074.024-.074.03-.137.055-.19.074a1.092 1.092 0 0 1-.148.041.686.686 0 0 1-.135.014h-.362c-.21 0-.419-.015-.626-.046a4.236 4.236 0 0 0-.626-.046c-.235 0-.466.015-.691.046a4.95 4.95 0 0 1-.673.046h-.158a1.733 1.733 0 0 0-.18-.018 7.618 7.618 0 0 0-.279-.014 7.028 7.028 0 0 1-.274-.014 1.276 1.276 0 0 1-.167-.019zm18.628-6.605v.046l.028.112c.013.05.019.08.019.092.043.08.091.16.144.237.052.077.108.145.167.204a.737.737 0 0 0 .204.144.604.604 0 0 0 .264.056.755.755 0 0 0 .325-.07.755.755 0 0 1 .324-.07c.112 0 .218.013.32.038.103.024.21.037.32.037h.066a.588.588 0 0 0 .097-.037l.12-.06.112-.061a.19.19 0 0 1 .07-.028c.03-.03.049-.09.055-.176.006-.087.01-.152.01-.195 0-.155-.036-.31-.107-.468a2.852 2.852 0 0 1-.163-.45 281.68 281.68 0 0 1-.26-.84l-.26-.84-.115-.348a11.108 11.108 0 0 1-.079-.245 8.867 8.867 0 0 0-.056-.177.561.561 0 0 1-.046-.102 4.527 4.527 0 0 1-.056-.157 4.527 4.527 0 0 0-.093-.26 1.848 1.848 0 0 0-.046-.12c-.006-.013-.034-.02-.083-.02a.198.198 0 0 0-.149.07.805.805 0 0 0-.116.163 1.087 1.087 0 0 0-.083.194 1.083 1.083 0 0 0-.042.167v.186c0 .012-.01.037-.033.074a3.897 3.897 0 0 0-.064.116l-.065.116a.476.476 0 0 1-.042.065l-.005.116a5.029 5.029 0 0 1-.032.376c-.006.055-.01.09-.01.102-.03.13-.086.26-.167.39-.08.13-.132.256-.157.38a5.89 5.89 0 0 0-.028.227 5.89 5.89 0 0 1-.019.144.34.34 0 0 1-.018.083.362.362 0 0 0-.037.065 5.187 5.187 0 0 0-.06.126 2.54 2.54 0 0 1-.107.208l-.019.149-.018.13a.805.805 0 0 0-.01.111zm6.95 6.689h-1.05a11.1 11.1 0 0 1-.334-.032 9.294 9.294 0 0 0-.352-.033c-.099 0-.264-.003-.496-.01a27.732 27.732 0 0 0-1.49 0c-.228.007-.386.01-.472.01a.988.988 0 0 1-.135-.144.29.29 0 0 1-.06-.18c0-.056.006-.095.018-.117.013-.021.034-.066.065-.134a.32.32 0 0 1 .033-.102c.022-.05.048-.08.079-.093a.675.675 0 0 0 .079-.01 11.79 11.79 0 0 1 .245-.036.407.407 0 0 0 .148-.065c.038-.025.078-.053.121-.084a4.576 4.576 0 0 1 .195-.13.178.178 0 0 1 .06-.023.959.959 0 0 1 .117-.023 1.937 1.937 0 0 1 .204-.019c.012 0 .024-.009.037-.027a.108.108 0 0 0 .018-.028v-.325c0-.167-.015-.334-.046-.501a5.498 5.498 0 0 0-.116-.496 17.857 17.857 0 0 0-.144-.483 8.094 8.094 0 0 1-.158-.58 4.43 4.43 0 0 0-.046-.204 4.43 4.43 0 0 1-.046-.204 1.282 1.282 0 0 0-.028-.12.213.213 0 0 0-.019-.065 3.289 3.289 0 0 1-.037-.098 3.289 3.289 0 0 0-.037-.097 6.113 6.113 0 0 1-.074-.232 1.1 1.1 0 0 0-.07-.176.548.548 0 0 0-.102-.144.291.291 0 0 0-.153-.079 2.464 2.464 0 0 0-.473-.065l-.056.037a.234.234 0 0 1-.055.028 3.372 3.372 0 0 0-.102.028.398.398 0 0 1-.102.018h-.51c-.23 0-.463.005-.701.014a5.69 5.69 0 0 0-.654.06c-.013 0-.037.013-.074.038a.234.234 0 0 1-.056.028c-.031.006-.082.012-.153.018l-.232.019-.237.018a2.24 2.24 0 0 1-.148.01l-.065.064-.25 1.41a.932.932 0 0 0-.186.311 1.537 1.537 0 0 0-.074.339c-.013.117-.02.235-.023.352a1.958 1.958 0 0 1-.042.353c0 .025-.022.071-.065.14a1.457 1.457 0 0 1-.074.11l.074.149a1.866 1.866 0 0 1 .111.176c.019.006.054.016.107.028a4.21 4.21 0 0 1 .422.12c.099.025.22.053.362.084.142.031.277.076.403.135.127.058.235.134.325.227.09.093.135.21.135.353v.157a.9.9 0 0 1-.116.144 1.637 1.637 0 0 1-.08.074.204.204 0 0 1-.064.042 42.186 42.186 0 0 0-.905.032c-.188.01-.368.017-.538.024-.17.006-.292.009-.366.009h-2.57a.199.199 0 0 1-.037-.07.213.213 0 0 0-.047-.078 3.208 3.208 0 0 0-.065-.316 1.455 1.455 0 0 1-.046-.352c0-.087.046-.15.14-.19.092-.04.176-.073.25-.098l.065-.005a2.575 2.575 0 0 0 .255-.032.323.323 0 0 0 .079-.019c.062-.024.14-.062.236-.111.096-.05.19-.097.283-.144.093-.046.175-.088.246-.125.071-.037.11-.059.116-.065l.093-.148v-.9c.062-.007.116-.054.162-.144.047-.09.088-.19.125-.302.038-.111.072-.222.102-.334a.979.979 0 0 1 .093-.24 19.198 19.198 0 0 0 .223-.204c.025-.026.037-.044.037-.057.006-.006.012-.034.019-.083l.018-.163a13.767 13.767 0 0 1 .028-.264c.012-.025.032-.071.06-.14a.347.347 0 0 1 .088-.138l.112-1.076c.086-.124.143-.26.171-.409l.08-.436a.224.224 0 0 0 .046-.102.558.558 0 0 0 .018-.092c.012-.013.037-.042.074-.089.037-.046.062-.075.075-.088a.895.895 0 0 0 .023-.106l.032-.172c.013-.062.023-.122.033-.181.009-.059.017-.104.023-.134v-.26a.738.738 0 0 1 .05-.102c.029-.05.057-.102.084-.158a3.667 3.667 0 0 1 .135-.25.242.242 0 0 0 .028-.07 6.472 6.472 0 0 0 .07-.246.39.39 0 0 0 .013-.074.751.751 0 0 0 .051-.102c.022-.05.044-.102.065-.158.022-.056.04-.11.056-.162a.44.44 0 0 1 .042-.107 3.45 3.45 0 0 0 .162-.594c.04-.216.094-.423.162-.621.056-.161.129-.316.218-.464.09-.149.138-.316.144-.501.013-.013.019-.043.019-.093s-.003-.107-.01-.172a1.77 1.77 0 0 1-.009-.125 18.487 18.487 0 0 0 .153-.25c.034-.056.064-.109.088-.158a.292.292 0 0 0 .037-.102v-.501a.89.89 0 0 1 .056-.135.88.88 0 0 1 .074-.134 2.288 2.288 0 0 0 .135-.088.412.412 0 0 0 .05-.042c.1-.062.188-.12.265-.176.078-.056.155-.105.232-.149a1.12 1.12 0 0 1 .25-.102c.09-.024.197-.037.32-.037.032 0 .09.003.177.01.087.006.145.009.176.009l.19.167a.35.35 0 0 1 .126.213c.074.254.122.504.144.752.021.247.066.488.134.723 0 .019.006.047.019.084a.116.116 0 0 0 .027.046c.013.031.027.068.042.111a.347.347 0 0 1 .023.084v.325c.031.136.075.269.13.399.056.13.096.256.12.38.007.018.018.065.033.14.016.073.031.154.047.24a4.353 4.353 0 0 1 .05.39.682.682 0 0 1 .029.074l.041.12.042.121c.012.037.025.056.037.056a31.249 31.249 0 0 0 .297 1.201c.037.14.062.237.074.293.21.352.362.719.455 1.1.093.38.176.768.25 1.163.007.013.019.042.038.089a20.742 20.742 0 0 1 .33.872c.089.256.186.514.291.774a.593.593 0 0 0-.018.093 14.54 14.54 0 0 0-.019.135 1.404 1.404 0 0 1-.046.218v.13a.656.656 0 0 0 .05.074c.028.037.056.077.084.12.028.044.056.085.084.125a1.687 1.687 0 0 1 .227.482c.037.134.077.262.12.386.044.124.098.243.163.357.065.115.168.221.31.32 0 .013.011.026.033.042.022.015.033.03.033.042.03.006.078.027.143.065a.447.447 0 0 0 .116.055c.019.006.07.016.153.028a14.53 14.53 0 0 0 .7.084 2.235 2.235 0 0 1 .233.134.523.523 0 0 1 .107.088.15.15 0 0 1 .041.102.95.95 0 0 1-.032.153 2.845 2.845 0 0 1-.19.515c-.038.074-.068.115-.093.12h-.325a.89.89 0 0 1-.134-.008.366.366 0 0 1-.135-.056zm1.881-.306a.64.64 0 0 1 .07-.306.62.62 0 0 1 .186-.214.765.765 0 0 1 .264-.12 1.258 1.258 0 0 1 .622.004c.098.028.2.042.306.042h.092a1.58 1.58 0 0 0 .487-.543c.121-.22.194-.45.219-.69.043-.353.061-.694.055-1.021a12.033 12.033 0 0 1 .037-1.15l.023-.186a7.577 7.577 0 0 0 .033-.297v-.51c-.031-.402-.063-.801-.097-1.197a14.08 14.08 0 0 1-.051-1.206V5.298a.322.322 0 0 0 .064-.135.749.749 0 0 0 .019-.171.985.985 0 0 0-.01-.14.917.917 0 0 1-.009-.13c0-.061.007-.104.019-.13 0-.018.006-.052.019-.101l.037-.163c.012-.058.024-.113.037-.162a.512.512 0 0 0 .018-.102v-.111c0-.025-.003-.08-.009-.167a6.941 6.941 0 0 1-.014-.283 7.49 7.49 0 0 0-.014-.288 3.713 3.713 0 0 1-.009-.162v-.594a.472.472 0 0 0-.074-.107 5.678 5.678 0 0 0-.14-.162 1.68 1.68 0 0 0-.148-.148c-.05-.044-.083-.065-.102-.065h-1.29a.697.697 0 0 1-.074-.065 1.061 1.061 0 0 0-.074-.051.57.57 0 0 1-.204-.25.852.852 0 0 1-.028-.247c0-.18.067-.298.2-.357s.28-.088.44-.088c.08 0 .158.01.232.032a.792.792 0 0 0 .223.033c.124 0 .243-.022.357-.065.114-.043.234-.065.357-.065 0-.006.016-.01.047-.014a1.2 1.2 0 0 1 .116-.005h.524c.05 0 .094.002.134.005.04.003.067.008.08.014a20.004 20.004 0 0 1 .51.032 20.004 20.004 0 0 0 .519.033h2.05a.634.634 0 0 1 .176.097c.062.047.12.1.172.163a1.4 1.4 0 0 1 .135.185.333.333 0 0 1 .055.167.138.138 0 0 1-.037.102.233.233 0 0 1-.093.056.705.705 0 0 1-.116.028c-.04.006-.072.012-.097.018a.761.761 0 0 0-.125.116c-.034.04-.07.08-.107.116a.464.464 0 0 1-.12.088.398.398 0 0 1-.177.033c-.05 0-.102-.003-.157-.01a.27.27 0 0 1-.149-.064h-.835c-.086 0-.176.041-.269.125a.49.49 0 0 0-.19.38 2.766 2.766 0 0 0-.005.163v.26c0 .364.025.723.074 1.076.05.352.075.71.075 1.076v.139a34.234 34.234 0 0 1-.032.714 34.232 34.232 0 0 0-.033.715l.009.13c.006.074.014.154.023.24a9.201 9.201 0 0 1 .033.39 36.297 36.297 0 0 1-.032.742 34.278 34.278 0 0 0-.033.752v1.011c-.006.05-.013.129-.019.237a75.51 75.51 0 0 0-.037.663c-.006.1-.01.167-.01.204a.363.363 0 0 0-.05.102.454.454 0 0 0-.033.102v.084c0 .16.011.328.033.5.021.174.06.344.116.511.055.167.13.323.222.469.093.145.21.267.353.366h.083a.677.677 0 0 0 .172-.019c.046-.012.113-.027.2-.046h1.855c.037-.006.1-.012.19-.018.09-.007.186-.014.288-.024.102-.009.2-.017.292-.023.093-.006.158-.012.195-.018.025 0 .071-.01.139-.028a.804.804 0 0 1 .12-.028h.075c.043 0 .091.012.144.037.052.025.085.059.097.102.217.031.42.057.608.079s.382.032.58.032a.735.735 0 0 0 .273-.046.75.75 0 0 0 .209-.125 1.1 1.1 0 0 0 .172-.186c.052-.07.11-.144.171-.218.013-.018.051-.065.116-.139l.209-.237a9.832 9.832 0 0 0 .315-.375.38.38 0 0 0 .08-.223c.002-.037.007-.076.013-.116a.685.685 0 0 1 .037-.134l.065-.065c.037-.037.062-.056.074-.056l.065-.102a.29.29 0 0 0 .047-.093.614.614 0 0 0 .028-.083c.012-.044.027-.09.046-.14.019-.049.034-.097.046-.143a.605.605 0 0 1 .028-.088.655.655 0 0 1 .19-.293c.096-.09.178-.162.246-.218h.056c.117.037.204.09.26.158a.54.54 0 0 1 .111.232c.019.087.026.18.023.278a1.91 1.91 0 0 0 .023.357c.007.035.014.07.024.107l.023.102.009.047v.102c0 .154-.022.301-.065.44a2 2 0 0 0-.083.422v1.16a.449.449 0 0 1-.116.27.379.379 0 0 1-.265.11 1.77 1.77 0 0 1-.185.02c-.093.005-.19.013-.293.022-.102.01-.199.017-.292.023a2.311 2.311 0 0 0-.195.019h-1.734a.284.284 0 0 0-.098.032.284.284 0 0 1-.097.033 8.57 8.57 0 0 0-.835.065h-.14a3.868 3.868 0 0 1-.148-.032 1.68 1.68 0 0 0-.176-.033 2.355 2.355 0 0 0-.25-.014c-.13-.003-.27-.008-.418-.014a22.237 22.237 0 0 0-.733-.018h-.204c-.093 0-.246-.002-.46-.005a49.698 49.698 0 0 0-.714-.005c-.263 0-.529-.001-.798-.004a62.638 62.638 0 0 0-.71-.005h-.463c-.408 0-.815.022-1.22.065-.405.043-.818.065-1.239.065h-.51a.554.554 0 0 1-.246-.125c-.052-.053-.079-.135-.079-.246zm23.136-5.873c.155.013.314.034.478.065.164.031.323.047.478.047h.092l.089-.093c.04-.044.085-.088.134-.135.05-.046.094-.09.135-.13l.088-.088a.591.591 0 0 0 .139-.079c.08-.052.142-.09.186-.116.055-.024.132-.061.231-.11.1-.05.177-.1.232-.15a15.044 15.044 0 0 0 .636-.681c.065-.078.103-.129.116-.153.099-.13.18-.277.246-.441.065-.164.113-.334.143-.51a5.16 5.16 0 0 0 .065-.524 6.8 6.8 0 0 0 .019-.483.444.444 0 0 0-.093-.278 1.507 1.507 0 0 1-.167-.278c-.012-.007-.026-.03-.042-.07a2.13 2.13 0 0 0-.12-.246c-.022-.037-.039-.056-.051-.056 0-.024-.026-.063-.079-.116l-.097-.097a.294.294 0 0 0-.028-.065 5.19 5.19 0 0 1-.06-.125 1.551 1.551 0 0 0-.066-.125c-.021-.037-.038-.06-.05-.065 0-.006-.016-.02-.047-.042-.03-.022-.066-.046-.107-.074a2.674 2.674 0 0 0-.12-.08 1.318 1.318 0 0 1-.098-.064.248.248 0 0 0-.074-.042.329.329 0 0 0-.065-.023.445.445 0 0 1-.037-.051l-.056-.084a1.742 1.742 0 0 0-.055-.078c-.019-.025-.028-.04-.028-.047-.012 0-.028-.01-.046-.028a.108.108 0 0 1-.019-.027 5.932 5.932 0 0 1-.232-.07 3.545 3.545 0 0 0-.144-.042.45.45 0 0 0-.097-.018 2.686 2.686 0 0 1-.186-.032 2.686 2.686 0 0 0-.195-.033.614.614 0 0 0-.083-.028 1.832 1.832 0 0 1-.14-.046 1.541 1.541 0 0 0-.143-.047.605.605 0 0 1-.088-.028h-.186a6 6 0 0 1-.32.427c-.04.05-.07.084-.088.102a2.85 2.85 0 0 1-.046.088c-.019.034-.037.07-.056.107l-.074.13v1.15a1.223 1.223 0 0 0-.125.38 2.594 2.594 0 0 0-.033.409v.167c0 .055.006.108.019.157a1.866 1.866 0 0 0-.111.176v.14c0 .068.004.16.013.274.01.114.017.225.023.334a17.31 17.31 0 0 0 .028.422c0 .012.007.035.019.07a21.637 21.637 0 0 1 .083.236.23.23 0 0 0 .028.065v.529c0 .012-.01.032-.032.06a.363.363 0 0 0-.051.088.404.404 0 0 1-.056.084c-.037.049-.056.08-.056.092v.065c0 .006.01.019.028.037l.037.037a.602.602 0 0 0 .093-.037.602.602 0 0 1 .093-.037c.086 0 .13.037.13.112a.318.318 0 0 1-.005.06.318.318 0 0 0-.005.06c0 .056.019.09.056.102zm-3.98 5.39c-.006-.024.014-.065.06-.12.047-.056.104-.11.172-.163.068-.052.136-.1.204-.143.068-.044.118-.065.149-.065a.703.703 0 0 1 .12-.019l.2-.018.2-.019c.061-.006.101-.01.12-.01.012-.012.05-.041.116-.087a3.6 3.6 0 0 0 .144-.107c.006-.019.027-.043.064-.074a.407.407 0 0 0 .075-.075 6.67 6.67 0 0 1 .042-.566 1.546 1.546 0 0 1 .041-.222c.013-.05.025-.104.037-.162l.037-.167a.638.638 0 0 0 .019-.098v-.037a.745.745 0 0 0-.056-.278.792.792 0 0 1-.055-.297c0-.13.018-.26.055-.39.037-.13.056-.266.056-.408v-.084a29.227 29.227 0 0 0-.032-.663 29.228 29.228 0 0 1-.033-.682v-.12a.37.37 0 0 1 .042-.167c.028-.056.06-.11.097-.163.037-.052.07-.108.098-.167a.43.43 0 0 0 0-.366.407.407 0 0 1 .023-.399.407.407 0 0 0 .065-.223c0-.13-.019-.287-.056-.473a2.618 2.618 0 0 1-.056-.51 1.516 1.516 0 0 1-.018-.288V4.57c0-.14.006-.237.018-.293a.96.96 0 0 1-.148-.501V3.75a.22.22 0 0 0 .028-.06c.012-.035.028-.07.046-.107a1.36 1.36 0 0 0 .047-.103.214.214 0 0 1 .027-.055V3.09c0-.155-.021-.31-.065-.464a.622.622 0 0 0-.26-.362c-.03 0-.081-.006-.152-.018a31.414 31.414 0 0 0-.432-.075 2.62 2.62 0 0 1-.139-.027c-.006-.013-.034-.03-.083-.051a.355.355 0 0 0-.093-.033c-.013 0-.05.003-.112.01-.061.006-.12.009-.176.009-.062 0-.099-.007-.111-.019a.287.287 0 0 1-.144-.065.714.714 0 0 1-.213-.287.417.417 0 0 1-.033-.149.44.44 0 0 1 .056-.213.724.724 0 0 1 .325-.306.63.63 0 0 1 .204-.056.916.916 0 0 1 .153-.019l.283-.023c.105-.01.207-.017.306-.023A3.94 3.94 0 0 0 98.249.9h.315a.97.97 0 0 0 .134.024 15.488 15.488 0 0 0 .455.05c.071.007.116.01.135.01h2.133c.013 0 .05.01.112.032a.474.474 0 0 0 .13.033h.037a.97.97 0 0 0 .297-.042c.086-.028.2-.042.343-.042.05 0 .119.003.209.01.09.006.143.009.162.009.006 0 .043.01.111.032a.57.57 0 0 0 .14.033c.11.012.24.023.384.032.146.01.271.036.376.08.235.086.45.188.645.305.195.118.391.257.59.418.123.093.256.233.398.422a5.864 5.864 0 0 1 .733 1.29c.093.225.148.425.167.598v.399c0 .012.01.052.032.12a.707.707 0 0 1 .033.121v.083c-.043.23-.091.455-.144.678-.053.222-.117.44-.195.654a3.852 3.852 0 0 1-.287.617 2.872 2.872 0 0 1-.423.556l-.023.024a.764.764 0 0 1-.12.088.126.126 0 0 1-.042.018.455.455 0 0 0-.084.093 9.713 9.713 0 0 1-.148.186 12.33 12.33 0 0 0-.167.208 2.918 2.918 0 0 0-.12.163 1.123 1.123 0 0 0-.075.092c-.037.05-.055.08-.055.093a4.93 4.93 0 0 0-.325.023.507.507 0 0 0-.25.116 3.42 3.42 0 0 1-.937.297c-.112.019-.211.028-.298.028-.16 0-.312-.03-.454-.088a2.026 2.026 0 0 0-.427-.125h-.278a.734.734 0 0 1-.325-.107.611.611 0 0 0-.334-.088h-.074a.728.728 0 0 0-.158.018.403.403 0 0 0-.148.065c0 .019-.005.05-.014.093-.01.043-.022.088-.037.135-.016.046-.03.09-.042.13a.358.358 0 0 0-.019.078.775.775 0 0 0-.027.07 1.416 1.416 0 0 1-.042.102c-.016.034-.03.067-.042.097l-.019.047c-.012 0-.018.012-.018.037v.07c0 .015.006.029.019.041 0 .013.021.053.064.12a.459.459 0 0 1 .065.121c0 .013.005.04.014.08.01.04.017.083.023.13a3.919 3.919 0 0 0 .028.19l.047.13.028.046c0 .08-.02.171-.06.273-.041.102-.067.187-.08.255a.682.682 0 0 0-.027.075 6.032 6.032 0 0 1-.042.12l-.042.12a.304.304 0 0 0-.019.075c0 .019.007.059.02.12.011.063.025.13.04.205l.043.209c.012.065.021.106.027.125.019.086.031.176.037.269.007.093.02.185.042.278.022.093.056.18.102.26a.684.684 0 0 0 .339.288c.068.03.108.046.12.046h.835c.031 0 .08.023.149.07.068.046.134.098.2.157.064.059.122.113.171.163.05.05.074.077.074.083v.056c-.05.086-.094.157-.134.213a.84.84 0 0 1-.13.144.505.505 0 0 1-.158.093 1.63 1.63 0 0 1-.218.06c-.056 0-.15-.003-.283-.01a8.892 8.892 0 0 0-.816 0 6.4 6.4 0 0 1-.265.01c-.03 0-.088.008-.171.023a.545.545 0 0 0-.153.042h-2.2a.4.4 0 0 0-.222-.084.472.472 0 0 0-.093.01.636.636 0 0 1-.12.009h-.074a.604.604 0 0 1-.418-.246.992.992 0 0 1-.167-.478zm14.398-5.9v.046l.027.112c.013.05.019.08.019.092.043.08.091.16.144.237.052.077.108.145.167.204a.737.737 0 0 0 .204.144.604.604 0 0 0 .264.056.755.755 0 0 0 .325-.07.755.755 0 0 1 .325-.07c.111 0 .218.013.32.038.102.024.209.037.32.037h.065a.588.588 0 0 0 .097-.037l.12-.06.112-.061a.19.19 0 0 1 .07-.028c.03-.03.05-.09.055-.176.007-.087.01-.152.01-.195 0-.155-.036-.31-.107-.468a2.852 2.852 0 0 1-.162-.45 281.68 281.68 0 0 1-.26-.84l-.26-.84-.116-.348a11.105 11.105 0 0 1-.079-.245 8.875 8.875 0 0 0-.055-.177.561.561 0 0 1-.047-.102 4.527 4.527 0 0 1-.055-.157 4.529 4.529 0 0 0-.093-.26 1.848 1.848 0 0 0-.047-.12c-.006-.013-.034-.02-.083-.02a.198.198 0 0 0-.149.07.805.805 0 0 0-.116.163 1.087 1.087 0 0 0-.083.194 1.083 1.083 0 0 0-.042.167v.186c0 .012-.01.037-.032.074a3.897 3.897 0 0 0-.065.116c-.022.04-.043.079-.065.116a.476.476 0 0 1-.042.065l-.004.116a5.03 5.03 0 0 1-.033.376c-.006.055-.01.09-.01.102-.03.13-.086.26-.166.39-.08.13-.133.256-.158.38a5.894 5.894 0 0 0-.028.227 5.89 5.89 0 0 1-.018.144.34.34 0 0 1-.019.083.362.362 0 0 0-.037.065 5.189 5.189 0 0 0-.06.126 2.54 2.54 0 0 1-.107.208l-.019.149-.018.13a.805.805 0 0 0-.01.111zm6.948 6.689h-1.048a11.1 11.1 0 0 1-.334-.032 9.294 9.294 0 0 0-.353-.033c-.098 0-.264-.003-.496-.01a27.732 27.732 0 0 0-1.489 0c-.229.007-.386.01-.473.01a.988.988 0 0 1-.135-.144.29.29 0 0 1-.06-.18c0-.056.006-.095.019-.117.012-.021.034-.066.065-.134a.32.32 0 0 1 .032-.102c.022-.05.048-.08.079-.093a.675.675 0 0 0 .079-.01 11.787 11.787 0 0 1 .246-.036.407.407 0 0 0 .148-.065l.12-.084a4.576 4.576 0 0 1 .196-.13.178.178 0 0 1 .06-.023.959.959 0 0 1 .116-.023 1.937 1.937 0 0 1 .204-.019c.012 0 .025-.009.037-.027a.108.108 0 0 0 .019-.028v-.325c0-.167-.016-.334-.047-.501a5.498 5.498 0 0 0-.116-.496 17.855 17.855 0 0 0-.144-.483 8.095 8.095 0 0 1-.157-.58 4.43 4.43 0 0 0-.047-.204 4.43 4.43 0 0 1-.046-.204 1.282 1.282 0 0 0-.028-.12.213.213 0 0 0-.018-.065 3.289 3.289 0 0 1-.038-.098 3.289 3.289 0 0 0-.037-.097 6.11 6.11 0 0 1-.074-.232 1.1 1.1 0 0 0-.07-.176.548.548 0 0 0-.101-.144.291.291 0 0 0-.154-.079 2.464 2.464 0 0 0-.473-.065l-.055.037a.234.234 0 0 1-.056.028 3.372 3.372 0 0 0-.102.028.398.398 0 0 1-.102.018h-.51c-.23 0-.463.005-.7.014a5.69 5.69 0 0 0-.655.06c-.012 0-.037.013-.074.038a.234.234 0 0 1-.056.028c-.03.006-.082.012-.153.018l-.232.019-.236.018a2.24 2.24 0 0 1-.149.01l-.065.064-.25 1.41a.932.932 0 0 0-.186.311 1.537 1.537 0 0 0-.074.339c-.012.117-.02.235-.023.352a1.958 1.958 0 0 1-.042.353c0 .025-.022.071-.065.14a1.457 1.457 0 0 1-.074.11l.074.149a1.866 1.866 0 0 1 .111.176c.019.006.055.016.107.028a4.21 4.21 0 0 1 .422.12c.1.025.22.053.362.084.142.031.277.076.404.135.126.058.235.134.324.227.09.093.135.21.135.353v.157a.9.9 0 0 1-.116.144 1.637 1.637 0 0 1-.079.074.204.204 0 0 1-.065.042 42.187 42.187 0 0 0-.905.032c-.188.01-.367.017-.538.024-.17.006-.292.009-.366.009h-2.57a.199.199 0 0 1-.037-.07.213.213 0 0 0-.046-.078 3.208 3.208 0 0 0-.065-.316 1.455 1.455 0 0 1-.047-.352c0-.087.047-.15.14-.19.092-.04.176-.073.25-.098l.065-.005a2.575 2.575 0 0 0 .255-.032.323.323 0 0 0 .079-.019c.062-.024.14-.062.237-.111.095-.05.19-.097.282-.144.093-.046.175-.088.246-.125.071-.037.11-.059.116-.065l.093-.148v-.9c.062-.007.116-.054.162-.144.047-.09.089-.19.126-.302.037-.111.07-.222.102-.334a.979.979 0 0 1 .092-.24l.052-.047a19.124 19.124 0 0 0 .171-.158c.025-.025.037-.043.037-.056.006-.006.013-.034.019-.083l.018-.163a13.767 13.767 0 0 1 .028-.264c.013-.025.033-.071.06-.14a.347.347 0 0 1 .089-.138l.111-1.076c.087-.124.144-.26.172-.409.027-.148.054-.293.078-.436a.224.224 0 0 0 .047-.102.558.558 0 0 0 .018-.092c.013-.013.038-.042.075-.089.037-.046.061-.075.074-.088a.895.895 0 0 0 .023-.106l.032-.172a4.51 4.51 0 0 0 .033-.181l.023-.134v-.26a.738.738 0 0 1 .051-.102c.028-.05.056-.102.084-.158a3.666 3.666 0 0 1 .134-.25.242.242 0 0 0 .028-.07 6.465 6.465 0 0 0 .07-.246.39.39 0 0 0 .014-.074.751.751 0 0 0 .05-.102c.022-.05.044-.102.066-.158.021-.056.04-.11.055-.162a.44.44 0 0 1 .042-.107 3.45 3.45 0 0 0 .162-.594c.04-.216.095-.423.163-.621.055-.161.128-.316.218-.464.09-.149.137-.316.143-.501.013-.013.019-.043.019-.093s-.003-.107-.01-.172a1.769 1.769 0 0 1-.009-.125l.056-.093.098-.157c.034-.056.063-.109.088-.158a.292.292 0 0 0 .037-.102v-.501a.89.89 0 0 1 .055-.135.88.88 0 0 1 .075-.134 2.287 2.287 0 0 0 .135-.088.412.412 0 0 0 .05-.042c.1-.062.187-.12.265-.176.077-.056.154-.105.232-.149a1.12 1.12 0 0 1 .25-.102c.09-.024.196-.037.32-.037.031 0 .09.003.176.01.087.006.146.009.177.009.055.05.119.105.19.167a.35.35 0 0 1 .125.213c.074.254.122.504.144.752.021.247.066.488.134.723 0 .019.007.047.019.084a.116.116 0 0 0 .028.046l.042.111a.347.347 0 0 1 .023.084v.325c.03.136.074.269.13.399.055.13.095.256.12.38.006.018.017.065.033.14l.046.24a4.352 4.352 0 0 1 .051.39.682.682 0 0 1 .028.074l.042.12.041.121c.013.037.025.056.038.056a31.249 31.249 0 0 0 .297 1.201c.036.14.061.237.074.293.21.352.361.719.454 1.1.093.38.176.768.25 1.163.007.013.02.042.038.089a20.743 20.743 0 0 1 .33.872c.089.256.186.514.291.774a.593.593 0 0 0-.018.093l-.019.135a1.404 1.404 0 0 1-.046.218v.13a.656.656 0 0 0 .05.074c.029.037.057.077.084.12.028.044.056.085.084.125a1.687 1.687 0 0 1 .227.482c.037.134.077.262.12.386.044.124.098.243.163.357.065.115.169.221.31.32 0 .013.012.026.033.042.022.015.033.03.033.042.03.006.079.027.144.065a.447.447 0 0 0 .116.055c.018.006.07.016.153.028a14.53 14.53 0 0 0 .7.084 2.235 2.235 0 0 1 .232.134.523.523 0 0 1 .107.088.15.15 0 0 1 .042.102.95.95 0 0 1-.033.153 2.845 2.845 0 0 1-.19.515c-.037.074-.068.115-.093.12h-.325a.89.89 0 0 1-.134-.008.366.366 0 0 1-.135-.056zm2.059-5.214v-1.29a3.26 3.26 0 0 1 .032-.223 2.762 2.762 0 0 0 .033-.24v-.705c.03-.31.119-.631.264-.965.146-.334.299-.634.46-.9.006-.006.027-.036.064-.088.038-.053.08-.115.126-.186a12.23 12.23 0 0 1 .246-.366l.064-.065a.554.554 0 0 0 .047-.08c.025-.045.05-.093.079-.143l.079-.144c.024-.046.043-.072.055-.079a.905.905 0 0 1 .08-.092c.04-.044.084-.088.134-.135l.143-.134c.047-.044.082-.075.107-.093 0-.006.019-.023.056-.051.037-.028.077-.056.12-.084l.126-.079a.22.22 0 0 1 .079-.037l.041-.046a8.07 8.07 0 0 1 .074-.084c.028-.03.056-.058.084-.083a.347.347 0 0 1 .06-.046 2.866 2.866 0 0 1 .302-.176l.079-.038c.148-.08.287-.18.417-.301.13-.12.27-.234.418-.339a.513.513 0 0 1 .204-.07c.055-.003.139-.017.25-.041l.144-.051c.077-.028.158-.056.241-.084a10.73 10.73 0 0 0 .385-.134h.446a.525.525 0 0 0 .097-.023.525.525 0 0 1 .097-.024h.084c.365 0 .725.027 1.08.08.356.052.717.084 1.081.097.075.055.16.099.256.13.095.03.196.057.301.078.105.022.212.042.32.06.108.02.209.04.302.066.111.03.207.08.287.148.08.068.198.127.353.176.235.075.425.129.57.163a.763.763 0 0 1 .334.153c.078.068.13.165.158.292.028.127.042.32.042.58 0 .136-.014.29-.042.464a2.082 2.082 0 0 1-.144.496c-.068.158-.16.29-.278.399a.632.632 0 0 1-.445.162h-.112c-.043 0-.07-.006-.083-.018a.18.18 0 0 1-.074-.023 1.093 1.093 0 0 1-.098-.056 2.663 2.663 0 0 1-.097-.065.183.183 0 0 1-.056-.051 2.634 2.634 0 0 1-.13-.149 27.85 27.85 0 0 1-.195-.236 9.487 9.487 0 0 0-.194-.232 1.319 1.319 0 0 1-.121-.153 10.661 10.661 0 0 0-.046-.218.605.605 0 0 0-.102-.227l-.195-.274a1.863 1.863 0 0 0-.228-.265 1.342 1.342 0 0 0-.273-.204.732.732 0 0 0-.325-.092h-.436a.236.236 0 0 1-.079-.033l-.13-.07a3.787 3.787 0 0 1-.125-.069.476.476 0 0 1-.065-.042.637.637 0 0 0-.218-.05 5.02 5.02 0 0 0-.218-.005h-.789a.603.603 0 0 0-.231.074 1.4 1.4 0 0 0-.177.125 1.956 1.956 0 0 0-.167.158c-.055.058-.12.116-.195.171a2.305 2.305 0 0 1-.13.051c-.074.028-.114.048-.12.06a1.955 1.955 0 0 1-.125.135l-.135.135a4.29 4.29 0 0 1-.255.2.582.582 0 0 0-.218.31l-.042.102c-.015.037-.03.071-.046.102a.283.283 0 0 1-.033.056.384.384 0 0 1-.05.065 2.71 2.71 0 0 1-.274.26c0 .006-.01.024-.028.055a1.52 1.52 0 0 0-.056.102 1.52 1.52 0 0 1-.093.158.384.384 0 0 1-.05.065 1.48 1.48 0 0 0-.084.102 4.147 4.147 0 0 1-.079.102c-.025.03-.037.05-.037.056a.492.492 0 0 0-.116.283.76.76 0 0 1-.097.31l-.047.047a.816.816 0 0 0-.125.24c-.028.088-.05.177-.065.27-.015.093-.03.184-.042.274a2.33 2.33 0 0 1-.065.315l-.037.107c-.012.037-.025.07-.037.097a4.794 4.794 0 0 0-.209.742c-.04.214-.06.457-.06.729 0 .229.012.442.037.64a3.866 3.866 0 0 0 .316 1.127c.08.182.176.37.287.561.056.118.11.25.163.395a1.137 1.137 0 0 0 .296.459 5.257 5.257 0 0 0 .279.278c.046.043.079.074.097.093.05.037.122.06.218.07a.59.59 0 0 1 .227.06 1.272 1.272 0 0 1 .26.111c.025.025.071.07.14.135a12.223 12.223 0 0 1 .422.436c.064.07.112.122.143.153.26.086.523.142.789.167.266.024.538.037.816.037.143 0 .276-.025.4-.074.123-.05.247-.115.37-.195.105-.087.2-.163.283-.228a.546.546 0 0 0 .181-.292c0-.018.003-.055.01-.111l.018-.181c.006-.065.012-.125.019-.18a.42.42 0 0 1 .018-.103c0-.012.008-.053.023-.12.016-.069.03-.118.042-.149a.46.46 0 0 1 .023-.093.638.638 0 0 0 .023-.083v-.408c.013-.106.031-.206.056-.302a8.076 8.076 0 0 0 .13-.594c.019-.102.028-.215.028-.338 0-.1-.003-.214-.01-.344-.006-.13-.02-.26-.041-.39a2.042 2.042 0 0 0-.098-.37.782.782 0 0 0-.176-.288.57.57 0 0 0-.264-.162 1.244 1.244 0 0 0-.293-.033h-.287a.884.884 0 0 1-.241-.065 1.55 1.55 0 0 1-.274-.144 1.022 1.022 0 0 1-.227-.199.359.359 0 0 1-.093-.232v-.065a.397.397 0 0 1 .097-.12.45.45 0 0 1 .088-.075h1.56a.248.248 0 0 1 .152-.074 1.64 1.64 0 0 1 .172-.01c.074 0 .147.012.218.033.07.022.14.047.209.075.068.027.136.052.204.074a.7.7 0 0 0 .213.032.136.136 0 0 0 .051-.01.198.198 0 0 1 .07-.008c.006 0 .027-.01.065-.028l.116-.06c.04-.022.078-.042.115-.06a.294.294 0 0 1 .065-.029c.019 0 .062-.003.13-.009.068-.006.12-.01.158-.01h.167c.068 0 .13.007.186.02a.275.275 0 0 1 .148.092h1.28c.044 0 .08.013.107.037.028.025.05.056.065.093a.671.671 0 0 1 .042.213c0 .143-.044.25-.13.32a.792.792 0 0 1-.325.154c-.13.03-.27.052-.422.065a3.625 3.625 0 0 0-.431.06.955.955 0 0 0-.348.139.384.384 0 0 0-.163.301c0 .056-.006.149-.018.279a30.865 30.865 0 0 1-.12 1.076c0 .025.002.097.008.218.007.12.01.233.01.339v.143c0 .04-.006.067-.019.08a.57.57 0 0 1-.01.073c-.005.038-.01.078-.013.121a1.298 1.298 0 0 1-.014.12.57.57 0 0 0-.01.075v1.076a.658.658 0 0 0 .029.084c.012.03.018.05.018.055l.06.06c.028.028.056.06.084.098l.079.102c.025.03.04.053.046.065.006.019.017.048.033.088.015.04.029.084.041.13.013.046.024.091.033.134a.44.44 0 0 0 .023.084.229.229 0 0 1-.088.172.786.786 0 0 1-.181.102 1.652 1.652 0 0 1-.209.07.875.875 0 0 0-.162.055c-.012 0-.031.01-.056.032a1.77 1.77 0 0 1-.079.065 1.769 1.769 0 0 0-.078.065c-.025.022-.04.033-.047.033l-.05.018a1.743 1.743 0 0 1-.117.037 6.471 6.471 0 0 0-.213.065.762.762 0 0 0-.135.028 1.04 1.04 0 0 0-.176.056.563.563 0 0 0-.083.046.74.74 0 0 1-.08.047.163.163 0 0 1-.046.018.849.849 0 0 1-.144.019l-.245.018a5.143 5.143 0 0 0-.246.023c-.078.01-.125.017-.144.024a.668.668 0 0 0-.102.014 3.424 3.424 0 0 0-.302.07 1.925 1.925 0 0 0-.097.027h-2.459a.825.825 0 0 1-.422-.13 2.134 2.134 0 0 0-.412-.195 9.803 9.803 0 0 0-.316-.074.786.786 0 0 1-.26-.111.126.126 0 0 1-.041-.019.678.678 0 0 1-.07-.046 1.467 1.467 0 0 0-.065-.047l-.028-.018a.682.682 0 0 0-.074-.028 6.029 6.029 0 0 1-.12-.042 6.029 6.029 0 0 0-.121-.041.201.201 0 0 1-.074-.038.649.649 0 0 1-.265-.19 1.765 1.765 0 0 0-.246-.236.92.92 0 0 0-.074-.065 11.42 11.42 0 0 1-.097-.08 1.64 1.64 0 0 0-.098-.073.589.589 0 0 1-.055-.042.371.371 0 0 0-.06-.037 3.695 3.695 0 0 0-.117-.06 1.424 1.424 0 0 0-.125-.056.248.248 0 0 1-.079-.042.394.394 0 0 1-.037-.056 9.668 9.668 0 0 1-.158-.278l-.037-.018c-.018-.007-.028-.022-.028-.047a4.927 4.927 0 0 1-.24-.325 2.75 2.75 0 0 1-.214-.37.777.777 0 0 1-.028-.135 1.577 1.577 0 0 1-.018-.135 3.067 3.067 0 0 0-.26-.482 3.77 3.77 0 0 1-.27-.483 1.338 1.338 0 0 1-.083-.273 8.2 8.2 0 0 1-.05-.292l-.047-.297a1.321 1.321 0 0 0-.08-.288zm13.47 4.704c0-.087.04-.181.12-.283a.374.374 0 0 1 .306-.153c.044 0 .102-.003.177-.01a5.259 5.259 0 0 1 .724.01h.101c.08 0 .166-.003.256-.01.09-.006.176-.018.26-.037a.793.793 0 0 0 .222-.083.254.254 0 0 0 .125-.158v-.464c0-.272.005-.535.014-.788.01-.254.026-.508.051-.761l.037-.181c.013-.059.031-.131.056-.218a.601.601 0 0 1-.01-.14c0-.135.002-.251.005-.347.003-.096.011-.227.023-.394 0-.025.004-.047.01-.065a.36.36 0 0 1 .018-.047 7.43 7.43 0 0 1 .037-.742.725.725 0 0 1-.032-.162c-.01-.078-.02-.141-.033-.19a1.046 1.046 0 0 1-.018-.13l-.019-.186a6.868 6.868 0 0 0-.018-.167 1.07 1.07 0 0 1-.01-.093v-1.03c-.012-.012-.023-.05-.032-.115a1.409 1.409 0 0 1-.014-.2c.006-.062.01-.148.014-.26.003-.111.008-.22.014-.329a14.532 14.532 0 0 0 .019-.422.39.39 0 0 1 .037-.149l.018-.092a.39.39 0 0 0 .01-.065.728.728 0 0 0-.02-.158 1.681 1.681 0 0 0-.045-.167 1.113 1.113 0 0 1-.047-.315V4.18c0-.096.006-.187.019-.274l.018-.273a3.905 3.905 0 0 0 0-.52 53.352 53.352 0 0 1-.018-.301 2.187 2.187 0 0 1-.019-.27v-.194a.354.354 0 0 0-.167-.177 1.294 1.294 0 0 0-.274-.106 1.771 1.771 0 0 0-.306-.056 2.848 2.848 0 0 0-.246-.014.731.731 0 0 0-.213.046.715.715 0 0 1-.241.037c-.074 0-.164-.007-.27-.023a1.394 1.394 0 0 1-.3-.078.723.723 0 0 1-.242-.149.307.307 0 0 1-.097-.232c0-.074.003-.133.009-.176.006-.043.034-.071.083-.084a3.94 3.94 0 0 1 .214-.05c.099-.022.188-.036.269-.042.056.006.16.012.315.018.155.006.322.016.501.028a9 9 0 0 0 .492.023l.343.005c.087.03.17.05.25.056.081.006.202.009.363.009l.083-.019.14-.028a.146.146 0 0 1 .05-.018h1.155l.06-.005a.639.639 0 0 0 .117-.023.529.529 0 0 1 .092-.028l.084-.018h2.82c.031 0 .115.003.25.009.137.006.273.018.409.037.111.019.204.028.278.028.167 0 .331-.01.492-.028.086-.012.168-.023.246-.032a2.73 2.73 0 0 1 .682.019c.13.02.194.035.194.04.019 0 .058.004.116.01l.19.019.186.018a.42.42 0 0 1 .102.019.372.372 0 0 1 .246.2.904.904 0 0 1 .107.282c.03.142.05.263.055.362.007.099.01.21.01.334v.478a4.407 4.407 0 0 1-.047.672 7.122 7.122 0 0 1-.042.302c-.015.096-.023.15-.023.162v.26a.768.768 0 0 1-.018.167.41.41 0 0 1-.075.158.349.349 0 0 1-.097.009h-.097c-.112 0-.23-.059-.358-.176a3.024 3.024 0 0 1-.366-.413 6.068 6.068 0 0 1-.529-.84 10.142 10.142 0 0 0-.283-.645.472.472 0 0 0-.088-.153.965.965 0 0 0-.162-.18.35.35 0 0 0-.237-.107h-1.605a1.966 1.966 0 0 0-.594-.116c-.21-.01-.423-.02-.64-.033a6.02 6.02 0 0 1-.334-.009l-.324-.018a.526.526 0 0 1-.158-.024 2.663 2.663 0 0 0-.148-.041 3.26 3.26 0 0 0-.163-.056.568.568 0 0 0-.171-.028c-.05 0-.101.031-.154.093a1.46 1.46 0 0 0-.125.167c-.03.03-.046.056-.046.074.012.068.018.18.018.334v.956c0 .154-.006.26-.018.315a.862.862 0 0 1-.047.306 4.574 4.574 0 0 1-.041.172.871.871 0 0 0-.024.218c.013.05.025.107.038.172.012.065.027.125.046.18.03.112.057.226.079.344.021.117.032.247.032.39 0 .074-.003.15-.009.227-.006.077-.015.159-.028.246l-.046.473v.324l.046.084c0 .006.048.012.144.018.096.007.172.01.227.01.031.012.092.018.181.018h.599a.81.81 0 0 0 .204-.018c.006 0 .012.003.018.009.006.006.016.01.028.01.05.03.096.049.14.055a1.06 1.06 0 0 0 .291 0c.047-.006.095-.016.144-.028a.793.793 0 0 0 .135-.028.705.705 0 0 1 .19-.018l.093.018.088.019c.028.006.05.01.07.01a1.023 1.023 0 0 0 .24.036c.075 0 .141-.021.2-.065a.575.575 0 0 0 .149-.162.958.958 0 0 0 .097-.213 1.74 1.74 0 0 0 .056-.218 6.852 6.852 0 0 1 .037-.59c.006-.065.015-.103.028-.116.03-.086.057-.153.078-.199.022-.046.033-.06.033-.042v-.083l.042-.2a.19.19 0 0 1 .134-.153.21.21 0 0 1 .051-.028 2.013 2.013 0 0 1 .204-.07.324.324 0 0 1 .08-.013.4.4 0 0 1 .3.12c.078.08.129.152.154.214v2.32c0 .061.006.13.018.203l.019.204c.006.062.01.102.01.121 0 .037-.01.118-.029.241-.018.124-.04.257-.065.4a3.369 3.369 0 0 0-.083.574.844.844 0 0 0-.028.223l-.037.269a.99.99 0 0 1-.065.25.426.426 0 0 1-.14.181.425.425 0 0 1-.259.07.36.36 0 0 1-.241-.079.49.49 0 0 1-.14-.195 1.063 1.063 0 0 1-.064-.255 2.036 2.036 0 0 1-.019-.269.332.332 0 0 0-.01-.07.318.318 0 0 1-.008-.06 61.053 61.053 0 0 0-.084-.39 1.933 1.933 0 0 0-.134-.403 1.12 1.12 0 0 0-.223-.325.582.582 0 0 0-.348-.162l-.352-.037a3.722 3.722 0 0 0-.34-.023 1.729 1.729 0 0 1-.273-.024c-.105 0-.2.004-.287.01a3.4 3.4 0 0 1-.242.01h-.167c-.043 0-.07-.007-.083-.02a.231.231 0 0 1-.102-.018.692.692 0 0 0-.13-.028h-.158a.36.36 0 0 0-.157.028.573.573 0 0 0-.102.065.216.216 0 0 1-.042.032c-.016.01-.033.02-.051.033a.51.51 0 0 1-.065.028h-.27a.95.95 0 0 1 .01.134v.125c0 .031-.001.055-.005.07a.257.257 0 0 1-.023.06.911.911 0 0 1-.05.135.281.281 0 0 0-.033.107 1.1 1.1 0 0 0 .037.195c.012.03.018.061.018.092a.604.604 0 0 1 .019.098c.006.046.01.095.014.148.003.053.008.104.014.153.006.05.009.087.009.111a.058.058 0 0 1 .019.042v.06c.043.025.065.04.065.047.03.086.057.178.078.273.022.096.04.197.051.302.007.043.011.13.014.26.003.13.008.27.014.422a23.522 23.522 0 0 1 .019.737v.956a.424.424 0 0 0 .125.283.714.714 0 0 0 .26.148c.102.034.21.055.325.06.114.007.22.01.32.01h.315c.031-.012.113-.023.246-.032.133-.01.348-.014.645-.014a.43.43 0 0 0 .083-.01.521.521 0 0 1 .102-.009c.105-.012.218-.023.339-.032.12-.01.196-.02.227-.033a.082.082 0 0 0 .037-.01.181.181 0 0 1 .037-.013.082.082 0 0 0 .037-.023.648.648 0 0 0 .089-.037.4.4 0 0 1 .06-.028c.03 0 .085.017.162.05.078.035.122.061.135.08.037.006.083.01.139.014.056.003.113.004.172.004h.598c.062 0 .116-.001.162-.004.047-.004.07-.008.07-.014.006 0 .012-.003.018-.01a.041.041 0 0 0 .019-.004.041.041 0 0 1 .019-.005c.123 0 .216-.01.278-.032a.953.953 0 0 0 .195-.098.948.948 0 0 1 .092-.065.071.071 0 0 1 .028-.009h-.018a.708.708 0 0 1 .2-.074.942.942 0 0 0 .134-.028c.068-.012.13-.028.185-.046a.31.31 0 0 0 .12-.065.145.145 0 0 1 .038-.028 2.028 2.028 0 0 0 .148-.125c.038-.034.075-.067.112-.098a4.071 4.071 0 0 0 .148-.13.132.132 0 0 0 .023-.028 2.66 2.66 0 0 0 .033-.074.585.585 0 0 1 .065-.139c.055-.13.108-.249.157-.357.05-.108.107-.209.172-.302.065-.092.142-.176.232-.25.09-.074.2-.142.33-.204a.103.103 0 0 0 .046-.01l.102-.055.05-.023c.023-.01.04-.017.052-.024l.056-.018c.024 0 .063.023.116.07.052.046.078.081.078.106v.325c0 .006.016.056.047.148.025.056.048.113.07.172a.43.43 0 0 1 .032.134v.27c0 .185-.008.39-.023.612-.016.222-.03.405-.042.547a.737.737 0 0 1-.213.404 1.07 1.07 0 0 1-.367.218c-.14.05-.288.08-.445.093a5.765 5.765 0 0 1-.45.018h-.807a.33.33 0 0 0-.153-.074 1.33 1.33 0 0 0-.172-.01 4.349 4.349 0 0 1-.14.037 1.037 1.037 0 0 1-.13.042.292.292 0 0 1-.045.005.843.843 0 0 1-.186.028 56.94 56.94 0 0 1-.27.018 9.285 9.285 0 0 1-.417.019h-4.443a.857.857 0 0 1-.186-.019 1.681 1.681 0 0 1-.167-.046 1.335 1.335 0 0 1-.172-.051.43.43 0 0 0-.134-.032.152.152 0 0 0-.037.004 2.132 2.132 0 0 0-.102.033.317.317 0 0 0-.06.009 4.241 4.241 0 0 1-.089.019.237.237 0 0 1-.088.018h-.05a.977.977 0 0 0-.163.023 8.473 8.473 0 0 0-.274.06c-.13.025-.253.05-.371.075a1.42 1.42 0 0 1-.269.037h-.195l-1.29.028c-.012 0-.03-.025-.055-.075a1.316 1.316 0 0 1-.07-.171 15.319 15.319 0 0 1-.065-.2 1.578 1.578 0 0 1-.041-.148v-.01zm14.304-.937a.853.853 0 0 1-.055-.204 2 2 0 0 1-.01-.214c0-.13.013-.256.038-.38.024-.124.054-.244.088-.362l.102-.348c.034-.114.063-.23.088-.348l.088-.44a.524.524 0 0 1 .237-.348.618.618 0 0 1 .102-.019l.157-.018.153-.019a.865.865 0 0 1 .098-.01c.025 0 .06.016.106.047.047.031.076.059.089.084.099.179.176.343.232.491.055.149.126.331.213.548l.065.111v.39a.629.629 0 0 0 .195.329c.043.04.088.079.134.116.047.037.095.08.144.13.043.062.082.125.116.19s.073.125.116.18a.639.639 0 0 0 .158.145c.062.04.145.06.25.06.043.012.132.025.265.037.133.012.275.026.426.042.152.015.294.03.427.042.133.012.224.021.274.027h.083a.855.855 0 0 0 .395-.097c.126-.065.252-.119.375-.162.013-.013.056-.027.13-.042a1.16 1.16 0 0 1 .13-.023l.088-.08c.053-.046.091-.081.116-.106l.06-.083a3.21 3.21 0 0 1 .2-.242 1.13 1.13 0 0 1 .018-.167l.019-.102c.006-.03.015-.049.028-.055 0-.006.006-.023.018-.051l.075-.167a.207.207 0 0 0 .018-.051.308.308 0 0 0 .019-.074 9.406 9.406 0 0 0 .037-.228.475.475 0 0 0 .01-.07.624.624 0 0 0-.033-.143 1.206 1.206 0 0 1-.051-.283 25.62 25.62 0 0 1-.019-.26 19.407 19.407 0 0 0-.018-.255 2.384 2.384 0 0 1-.01-.162.37.37 0 0 0-.065-.126 3.91 3.91 0 0 0-.125-.167 2.539 2.539 0 0 0-.144-.167 6.016 6.016 0 0 0-.12-.125 1.412 1.412 0 0 0-.557-.445.443.443 0 0 0-.111-.042.596.596 0 0 0-.102-.023 2.236 2.236 0 0 0-.153-.135 11.437 11.437 0 0 0-.098-.078.464.464 0 0 0-.065-.047l-.065-.032a.19.19 0 0 0-.083-.024.365.365 0 0 0-.074-.037 20.223 20.223 0 0 1-.436-.194.116.116 0 0 1-.047-.028.264.264 0 0 1-.056-.047 2.197 2.197 0 0 1-.078-.083 2.196 2.196 0 0 0-.08-.084l-.046-.046a.295.295 0 0 0-.05-.033 1.834 1.834 0 0 1-.093-.055l-.102-.065a4.716 4.716 0 0 1-.08-.051 3.909 3.909 0 0 1-.533-.343c-.17-.13-.338-.262-.505-.395a20.015 20.015 0 0 0-.506-.39 5.7 5.7 0 0 0-.524-.347 2.446 2.446 0 0 1-.12-.177 9.226 9.226 0 0 1-.172-.278 6.21 6.21 0 0 0-.172-.274 5.22 5.22 0 0 1-.111-.171.312.312 0 0 1-.047-.074 4.323 4.323 0 0 0-.06-.116 1.301 1.301 0 0 1-.088-.2v-.482c0-.235.008-.47.023-.705s.051-.461.107-.678c.05-.173.137-.36.264-.56a4.523 4.523 0 0 1 .96-1.086c.18-.146.35-.25.51-.311l.065-.005.126-.009c.046-.003.09-.008.13-.014a.323.323 0 0 0 .078-.018.651.651 0 0 0 .112-.019c.055-.012.114-.028.176-.046.062-.019.12-.034.176-.047a.651.651 0 0 1 .112-.018h.088c.052 0 .114-.002.185-.005a5.02 5.02 0 0 1 .218-.005h.307c.068 0 .139.002.213.005.074.003.144.005.209.005h.134a.68.68 0 0 0 .176.05l.181.029c.06.009.118.02.177.032a.612.612 0 0 1 .171.065 2.38 2.38 0 0 0 .13.148c.124.155.26.282.408.38a.948.948 0 0 0 .538.15c.149 0 .26-.02.334-.061a.728.728 0 0 0 .186-.14 1.53 1.53 0 0 1 .148-.138c.05-.04.127-.06.232-.06.056 0 .096.004.12.013.026.01.06.048.103.116.012.019.03.053.056.102l.078.158.075.153a.826.826 0 0 0 .05.097v.13a.167.167 0 0 0-.022.056 2.29 2.29 0 0 0-.06.26v.77a.951.951 0 0 0-.154.324c-.021.1-.057.21-.107.334a.6.6 0 0 1-.046.126c-.03.07-.052.11-.065.116l-.079.208a.49.49 0 0 1-.083.149.292.292 0 0 1-.14.088.852.852 0 0 1-.245.028.676.676 0 0 1-.353-.084.67.67 0 0 1-.222-.213 1.188 1.188 0 0 1-.135-.297 10.813 10.813 0 0 1-.097-.339 5.266 5.266 0 0 0-.102-.334.983.983 0 0 0-.149-.283 1.606 1.606 0 0 1-.079-.092 4.697 4.697 0 0 0-.134-.158l-.144-.162a2.762 2.762 0 0 0-.107-.116 1.64 1.64 0 0 0-.148-.149c-.068-.062-.14-.125-.214-.19a1.74 1.74 0 0 0-.222-.167.375.375 0 0 0-.186-.07h-.835a.301.301 0 0 0-.116-.055.596.596 0 0 0-.106-.01h-.102a4.414 4.414 0 0 0-.548.418 7.251 7.251 0 0 0-.491.482v.13c0 .112-.011.204-.033.279a1.01 1.01 0 0 0-.032.278v.102c0 .012.01.053.032.12a.707.707 0 0 1 .033.121c.006.105.009.198.009.279 0 .08.004.157.014.231.009.075.026.149.05.223.025.074.066.155.121.241a.369.369 0 0 1 .056.047l.084.083a49.884 49.884 0 0 1 .348.32c.077.071.151.138.222.2l.135.12.046.047c.025.024.051.052.079.083.028.031.056.059.083.084l.051.046.098.046a8.57 8.57 0 0 1 .542.279c.161.068.327.148.497.241.17.093.348.14.533.14.297.197.613.404.947.62.334.217.64.443.918.678a.28.28 0 0 1 .079.065l.06.065.033.07.055.115c.022.044.04.084.056.121a.285.285 0 0 0 .032.065c.106.16.214.308.325.44a1.339 1.339 0 0 1 .297.696c.006.053.012.103.019.149.006.046.012.073.018.079 0 .012.011.043.033.093a.32.32 0 0 1 .032.102v.13a.48.48 0 0 1-.06.255.748.748 0 0 0-.088.273c0 .025.003.088.009.19.006.103.01.203.01.302a.679.679 0 0 1-.02.213.223.223 0 0 1-.023.056c-.015.03-.034.063-.055.097a4.366 4.366 0 0 0-.098.163c-.012.018-.04.072-.083.162-.043.09-.091.186-.144.288l-.144.287a.773.773 0 0 1-.092.163c0 .012-.02.04-.06.083a5.67 5.67 0 0 1-.145.149l-.287.287c-.198.18-.402.336-.612.469-.21.133-.44.233-.687.301l-.213.047a49.094 49.094 0 0 1-.738.157 2.95 2.95 0 0 1-.274.047h-.065c-.334 0-.678-.01-1.034-.028a5.188 5.188 0 0 1-1.034-.158.594.594 0 0 1-.167-.079 15.085 15.085 0 0 1-.307-.218.726.726 0 0 0-.167-.092 3.47 3.47 0 0 0-.213-.08 18.102 18.102 0 0 1-.584-.213.548.548 0 0 1-.167-.088 2.193 2.193 0 0 0-.102-.12l-.158-.177a6.152 6.152 0 0 1-.153-.176 1.975 1.975 0 0 0-.098-.111z"/>
</svg>