<svg xmlns="http://www.w3.org/2000/svg" viewBox="0 0 30 30">
  <path fill="#001d26" d="M0 0h30v30H0z"/>
  <path fill="#00c8ff" d="M30-.05v30H0v-30h30m-1.21 1.26H1.21v27.58h27.58z" data-name="Layer 1"/>
  <g fill="#00c8ff" data-name="Layer 2">
    <path d="M4.57 6.32a26 26 0 0 1 4.59-.37A7.27 7.27 0 0 1 14 7.34a4.79 4.79 0 0 1 1.61 3.71 5.17 5.17 0 0 1-1.39 3.79A7.23 7.23 0 0 1 9 16.66a6.45 6.45 0 0 1-1.47-.12v6.29h-3zm3 7.8a4.92 4.92 0 0 0 1.43.15c2.25 0 3.62-1.15 3.62-3.09s-1.26-2.84-3.33-2.84a8.15 8.15 0 0 0-1.73.15v5.63zM17.17 19.74a6.42 6.42 0 0 0 3 .9c1.32 0 1.91-.45 1.91-1.25s-.49-1.22-2-1.77c-2.32-.8-3.27-2.09-3.27-3.54 0-2.14 1.73-3.79 4.5-3.79a6.75 6.75 0 0 1 3.18.72l-.61 2.14a5.18 5.18 0 0 0-2.52-.7c-1.08 0-1.66.55-1.66 1.3s.56 1.12 2.08 1.69c2.22.79 3.22 1.91 3.22 3.7 0 2.22-1.69 3.69-4.84 3.69a7.55 7.55 0 0 1-3.6-.88z"/>
  </g>
</svg>
