<svg xmlns="http://www.w3.org/2000/svg" viewBox="0 0 214 33">
  <path fill="#BE0F34" fill-rule="nonzero" d="M214,31.8993345 L214,17.2183908 C214,14.8362976 214,12.5836661 212.679492,10.5640653 C211.410768,8.64803388 208.976891,8.00072595 206.672474,8.00072595 C203.927889,8.00072595 201.804719,9.11409558 200.069933,11.2113733 L200.069933,0.440169389 L190.98173,0.440169389 L190.98173,31.8993345 L200.069933,31.8993345 L200.069933,17.8139141 C200.018149,17.0371446 200.069933,16.2085904 200.561887,15.5612825 C201.079734,14.8362976 201.856503,14.4220206 202.71095,14.4220206 C204.601089,14.4220206 204.911797,15.7425287 204.911797,17.3219601 L204.911797,31.8993345 L214,31.8993345 Z M175.290986,14.4220206 L175.290986,23.277193 C175.290986,25.81464 175.239201,28.0413793 177.025771,29.9833031 C178.812341,31.8993345 181.14265,32.6761041 183.576528,32.3653962 L188.936237,31.692196 L188.936237,25.1414398 C188.055898,25.3744707 187.201452,25.5557169 186.321113,25.5557169 C184.172051,25.5557169 184.353297,24.2352087 184.353297,22.5263158 L184.353297,14.4220206 L188.936237,14.4220206 L188.936237,8.46678766 L184.249728,8.46678766 L184.249728,0.724984876 L176.378463,0.983908046 L175.705263,8.46678766 L171.899093,8.46678766 L171.899093,14.4220206 L175.290986,14.4220206 Z M170.733938,-6.89909916e-16 L161.645735,-6.89909916e-16 L161.645735,6.2400484 L170.733938,6.2400484 L170.733938,-6.89909916e-16 Z M170.733938,8.46678766 L161.645735,8.46678766 L161.645735,31.8993345 L170.733938,31.8993345 L170.733938,8.46678766 Z M123.350998,8.46678766 L123.350998,31.8993345 L132.232063,31.8993345 L132.232063,17.8139141 C132.232063,16.0791289 132.413309,14.4738052 134.562371,14.4738052 C136.530188,14.4738052 136.633757,16.3639443 136.633757,17.8139141 L136.633757,31.8993345 L145.514822,31.8993345 L145.514822,18.8754991 C145.514822,16.98536 145.411252,14.6032668 148.000484,14.6032668 C150.123654,14.6032668 149.916515,16.3121597 149.916515,17.8139141 L149.916515,31.8993345 L158.79758,31.8993345 L158.79758,16.5451906 C158.79758,14.0595281 158.79758,11.7810042 157.088687,10.046219 C155.716394,8.62214156 153.593224,8.02661827 151.625408,8.02661827 C148.544223,8.02661827 146.213914,9.03641863 144.60859,11.6515426 C143.184513,9.1399879 140.905989,8.02661827 138.00605,8.02661827 C135.261464,8.02661827 132.905263,9.26944949 131.63654,11.6515426 L131.53297,11.6515426 L131.53297,8.46678766 L123.350998,8.46678766 Z M98.2095584,25.2450091 C99.9443436,30.6565033 104.760315,32.3395039 109.990563,32.3395039 C115.272595,32.3395039 122.082275,30.5011494 122.082275,24.0280702 C122.082275,21.5165154 120.943013,19.4451301 118.768058,18.0728373 C116.877919,16.9335753 114.495826,16.5969752 112.398548,16.338052 C111.311071,16.2085904 109.472716,16.0532365 108.462916,15.7943134 C107.867393,15.6648518 107.090623,15.3282517 107.090623,14.6032668 C107.090623,13.5934664 109.29147,13.3604356 110.016455,13.3604356 C111.621779,13.3604356 113.408348,13.8264973 114.107441,15.4318209 L121.02069,14.1113128 C119.467151,9.70961887 114.832426,8.02661827 110.430732,8.02661827 C107.815608,8.02661827 105.200484,8.38911071 102.92196,9.81318814 C100.721113,11.1854809 99.2970357,13.3086509 99.2970357,15.9496673 C99.2970357,22.1897157 105.122807,23.1477314 110.016455,23.846824 C110.845009,23.9503932 113.952087,24.1575318 113.952087,25.3485783 C113.952087,26.7208711 111.388748,26.8244404 110.456624,26.8244404 C108.488808,26.8244404 105.951361,26.5396249 105.459407,24.3128857 L98.2095584,25.2450091 Z M87.9562008,22.0861464 C87.9562008,23.2254083 88.0338778,24.0539625 87.4124622,25.0637629 C86.9205082,25.8405324 86.3249849,26.2548094 85.3928615,26.2548094 C82.5447066,26.2548094 82.415245,22.5781004 82.415245,20.5326074 C82.415245,19.2379915 82.5964912,17.4514217 82.8813067,16.1826981 C83.1661222,14.7586207 83.8393224,13.6970357 85.4446461,13.6970357 C86.169631,13.6970357 86.9981851,14.0077435 87.4124622,14.6032668 C88.0079855,15.3282517 87.9562008,16.4416213 87.9562008,17.3478524 L87.9562008,22.0861464 Z M97.0444041,31.8993345 L97.0444041,0.440169389 L87.9820932,0.440169389 L87.9820932,10.3828191 C86.5580157,8.95874168 84.6419843,8.00072595 82.3893527,8.00072595 C75.3207502,8.00072595 73.0422263,14.292559 73.0422263,20.2995765 C73.0422263,26.0735632 75.3725348,32.3653962 82.1045372,32.3653962 C85.030369,32.3653962 86.9981851,31.3555959 88.3445856,28.7922565 L88.4481549,28.7922565 L88.4481549,31.9252269 L97.0444041,31.9252269 L97.0444041,31.8993345 Z M48.5739867,8.46678766 L48.5739867,31.8993345 L57.6362976,31.8993345 L57.6362976,18.3576528 C57.6362976,16.4416213 57.8693285,14.2666667 60.3808832,14.2666667 C62.3486993,14.2666667 62.3486993,16.2344828 62.3486993,17.6585602 L62.3486993,31.8734422 L71.4110103,31.8734422 L71.4110103,17.4514217 C71.4110103,15.0175439 71.4110103,12.3506352 69.9351482,10.4346038 C68.5628554,8.64803388 66.0513007,8.00072595 63.8504537,8.00072595 C61.0022989,8.00072595 58.3094979,9.11409558 57.1961283,11.7551119 L57.092559,11.7551119 L57.092559,8.46678766 L48.5739867,8.46678766 Z M45.4669087,31.8993345 L45.4669087,8.46678766 L36.3787054,8.46678766 L36.3787054,21.9566848 C36.3787054,22.8370236 36.3269208,23.6396854 35.9126437,24.4423472 C35.4983666,25.2709014 34.6180278,25.7628554 33.7117967,25.7628554 C31.6404114,25.7628554 31.692196,24.1575318 31.692196,22.6557774 L31.692196,8.46678766 L22.6298851,8.46678766 L22.6298851,24.6494858 C22.6298851,26.8503327 22.8111313,28.8958258 24.4682396,30.5529341 C25.892317,31.8734422 27.7565638,32.3395039 29.6984876,32.3395039 C32.7278887,32.3395039 35.8349667,31.0448881 36.7929825,28.0413793 L36.8965517,28.0413793 L36.8965517,31.8993345 L45.4669087,31.8993345 Z M19.6263763,20.1183303 L19.6263763,13.0497278 L9.39891107,13.0497278 L9.39891107,7.923049 L22.7334543,7.923049 L22.7334543,0.440169389 L-5.97921927e-15,0.440169389 L-5.97921927e-15,31.8993345 L9.39891107,31.8993345 L9.39891107,20.1183303 L19.6263763,20.1183303 Z" transform="translate(0.000000, 0.000000)" />
</svg>