<?xml version="1.0" encoding="utf-8"?>
<!-- Generator: Adobe Illustrator 16.0.0, SVG Export Plug-In . SVG Version: 6.00 Build 0)  -->
<!DOCTYPE svg PUBLIC "-//W3C//DTD SVG 1.1//EN" "http://www.w3.org/Graphics/SVG/1.1/DTD/svg11.dtd">
<svg version="1.1" id="Layer_1" xmlns="http://www.w3.org/2000/svg" xmlns:xlink="http://www.w3.org/1999/xlink" x="0px" y="0px"
	 width="459.873px" height="107.225px" viewBox="0 0 459.873 107.225" enable-background="new 0 0 459.873 107.225"
	 xml:space="preserve">
<g>
	<defs>
		<rect id="SVGID_1_" width="459.873" height="107.225"/>
	</defs>
	<clipPath id="SVGID_2_">
		<use xlink:href="#SVGID_1_"  overflow="visible"/>
	</clipPath>
	<path clip-path="url(#SVGID_2_)" d="M135.33,59.139c-9.088-0.14-14.99,14.251-19.636,20.101
		c-1.935-5.809,0.067-12.892-3.614-17.988c-2.578-3.569-8.479-4.978-12.707-6.301c-1.953-0.611-4.556-1.341-7.247-1.917
		c-2.403-11.76-4.76-34.153-15.771-27.675c-0.004-0.002-0.045,0.026-0.085,0.053c-0.056,0.034-0.161,0.107-0.158,0.112
		C62.75,34.65,51.216,48.382,42.601,62.173c-3.988-4.438-6.21-7.312-10.121-11.53l-4.604-4.423
		c-3.755-3.248-7.545-6.113-11.013-9.479c-5.249-5.094-14.264-11.645-13-20.402C5.26,10.048,13.905,2.753,23.182,2.618
		C36.35,2.425,45.984,7.886,50.996,17.714c1.311,2.571-1.076,4.286,2.746,5.418c2.196,0.651,5.745,0.483,7.671-1.055
		c5.287-4.223-6.798-12.765-10.074-14.902c-10.28-6.71-20.191-7.78-29.356-6.919C10.191,1.362-2.386,10.865,0.389,21.386
		c3.069,11.638,15.504,20.984,25.41,29.302c4.295,4.281,8.797,8.551,12.411,13.532c2.267,3.125,1.242,3.411-0.775,7.294
		c-1.663,3.203-2.387,6.521-3.81,9.819c-1.964,4.552-4.494,5.897-3.041,10.349c1.09,3.338,2.192,6.713,4.222,9.648
		c2.888,4.175,10.313,9.07,15.663,3.158c5.776-6.386,4.511-17.47,2.523-23.798c-1.458-4.638-8.818-16.978-8.686-17.346
		c6.115-10.553,14.142-20.04,23.209-28.112c1.644-1.465,9.738-7.973,9.738-7.973c1.202-0.496,1.43-0.018,2.088,0.675
		c1.441,1.517,1.778,3.685,2.19,5.68c1.218,5.909,1.147,12.239,1.715,18.478c-6.31-0.675-19.623,1.919-19.907,10.062
		c5.248-2.004,9.67-4.207,15.512-4.738c2.039-0.187,3.941-0.267,5.097,0.383c0,0,1.317,6.832,1.423,7.888
		c0.62,6.189,4.084,29.217,4.488,31.049c4.536,6.095,6.434-0.703,6.532-5.341c0.117-5.558-1.044-12.182-1.894-17.457
		c-0.389-2.414-1.552-13.405-1.57-13.812c2.447,0.768,5.128,1.201,7.94,2.12c7.585,2.479,4.321,11.354,5.941,17.815
		c0.926,3.695,2.311,8.021,5.582,10.56c4.478,3.475,6.461,0.307,9.104-3.501c2.909-4.191,3.968-8.834,6.061-13.214
		c1.327-2.775,2.717-7.623,5.598-9.412c1.504,4.021,3.036,8.08,4.33,12.343c1.046,3.447,7.568,16.675,9.027,9.226
		c0.937-4.78-2.1-12.239-3.424-16.783C141.88,65.142,141.229,59.229,135.33,59.139 M47.69,80.455
		c0.703,2.556,2.563,11.34-0.407,13.424c-2.571,1.805-7.534-2.522-8.911-4.302c-2.982-3.855-2.511-9.786-0.51-14.823
		c0,0,1.612-4.067,3.256-6.752C43.867,71.801,46.4,75.767,47.69,80.455"/>
	<path clip-path="url(#SVGID_2_)" d="M359.356,63.214c-9.696-0.135-15.442,13.504-20.049,18.896
		c-2.936-6.908-2.972-14.005-6.656-20.903c-2.924-5.474-8.577-8.798-14.027-10.625c-1.203-0.403-6.669-1.794-9.276-2.167
		c-0.36-1.128-0.261-1.002-0.497-1.919c-1.396-5.409-2.514-10.942-3.636-16.395c-1.131-5.495-2.441-10.803-4.451-16.138
		c-1.373-3.646-1.838-10.764-7.699-11.449c-2.416-0.282-4.215,0.64-6.094,3.179c-0.71,1.084-1.44,2.222-1.99,3.332
		c-2.889,5.821-4.935,12.139-7.342,18.117c-3.832,9.518-6.731,19.364-9.456,29.104c-2.63,1.172-5.346,1.646-8.2,2.352
		c-2.545,0.629-8.175,0.532-10.156,1.479c-2.158,1.031-2.493,0.499-0.448,1.738c4.166,2.525,10.889,1.563,17.271-0.333
		c-1.624,5.615-3.342,11.316-5.057,16.972c-1.031,3.402-1.67,5.553-2.708,9.163c-1.081,3.761-2.121,6.048-1.851,6.409
		c1.725,2.299,5.506,7.474,9.616,4.716c2.539-1.705,1.713-8.587,1.951-11.119c0.881-9.326,2.053-18.671,3.561-27.969
		c1.496-0.569,3.3-1.151,4.451-1.591c2.792-0.791,5.191-1.654,8.112-2.23c4.293-0.846,13.091-2.858,17.648-2.526
		c0,0,0.423,0.779,0.979,2.425c0.776,2.3,1.685,5.123,2.294,7.375c1.611,5.967,3.295,11.612,5.055,17.333l1.76,6.026
		c1.781,5.296,2.573,10.223,6.986,15.911c3.967,4.708,5.079,3.023,5.166-0.151c-2.606-4.959-4.269-9.465-5.076-12.375l-1.073-3.476
		c-2.918-10.164-4.843-18.291-7.041-28.55c-0.135-0.632-1.083-4.243-1.173-4.559c2.313,0.226,7.113,1.494,8.454,2.022
		c14.421,5.689,7.046,23.741,14.411,33.719c12.084,16.368,17.083-16.734,24.025-20.657c1.662,3.808,3.082,7.645,4.312,11.562
		c1.618,5.571,8.321,15.132,9.833,8.384c0.968-4.322-2.199-11.176-3.606-15.42C366.384,68.966,365.648,63.302,359.356,63.214
		 M291.203,50.31c-3.746,0.519-12.59,2.562-18.155,4.16c0.133-0.754,0.249-1.511,0.387-2.264c1.046-4.74,1.888-8.709,2.737-11.307
		c1.44-4.395,2.569-8.615,4.101-12.875c1.393-3.876,2.951-7.982,4.431-11.428c1.038-2.418,1.969-5.033,3.201-7.724
		c1.251,1.221,2.419,2.914,2.938,4.077c4.35,9.746,6.29,20.69,9.047,30.914c0.628,2.329,1.268,4.89,1.268,4.89
		C299.666,49.046,293.327,50.016,291.203,50.31"/>
	<path clip-path="url(#SVGID_2_)" d="M459.864,89.401c0.022-2.411-8.217-8.453-12.531-5.17c0.074-0.058,4.788,6.8,5.448,7.413
		c3.317,3.08,7.092,1.242,7.092-1.928L459.864,89.401z"/>
	<path clip-path="url(#SVGID_2_)" d="M436.922,88.569c-2.035-2.049-3.818-6.155-4.78-8.658c-2.053-5.341,0.175-8.55-6.935-10.711
		c1.707-1.266,6.941-4.346,7.305-6.229c0.854-4.414-4.893-3.804-8.18-2.145c-5.383,2.716-10.916,8.057-14.374,12.571
		c-3.188-0.025-6.408-2.477-9.622-3.6c-2.801-0.978-5.196-1.989-8.224-2.217c-2.13-0.16-4.177-0.063-6.175,0.585
		c-0.562,0.183-3.682,2.208-4.148,2.111c-3.011-1.924,1.049-3.914-3.848-5.071c-2.967-0.701-4.271,0.088-5.074,2.475
		c-1.229,3.646,2.29,13.593,2.832,15.781c0.654,2.325,2.573,9.298,5.16,9.728c4.527,0,2.632-13.331,3.665-16.839
		c2.805-9.521,16.203-1.93,23.599-0.328c-3.171,5.183-6.779,13.875,0.639,16.929c9.48,3.903,13.135-8.309,15.771-13.04
		c3.926,3.997,6.632,13.925,14.131,14.7c4.354,0.45,5.006-3.041,3.862-6.066C438.761,89.548,439.545,91.208,436.922,88.569
		 M421.396,72.529c-1.283,2.765-2.118,4.568-3.524,6.808c-1.882,2.996-3.981,5.273-6.921,7.599
		c-2.943-4.076,6.005-14.353,10.922-15.067C421.714,72.088,421.555,72.309,421.396,72.529"/>
	<path clip-path="url(#SVGID_2_)" d="M203.521,45.959c-3.687,0.016-6.347,1.528-8.381,3.777l2.651,1.447
		c2.14-0.675,4.305,1.426,8.952,2.571C216.959,56.269,213.131,45.917,203.521,45.959"/>
	<path clip-path="url(#SVGID_2_)" d="M238.896,70.878c-7.252-5.306-14.219-0.901-20.406,2.852l-0.002,0.006
		c-4.306,2.621-5.462,5.36-5.773,6.612c-0.057,0.476-0.105,0.888-0.096,1.069c0.161,3.336,1.246,6.634,3.618,9.407
		c5.195,6.078,11.483,0.758,15.929-3.33c2.763-2.541,5.606-5.346,8.151-7.9C243.193,76.708,242.275,73.352,238.896,70.878
		 M227.384,81.606c-4.662,4.713-10.157-1.661-8.52-4.332C223.176,77.462,232.819,76.111,227.384,81.606"/>
	<path clip-path="url(#SVGID_2_)" d="M202.188,69.066c-4.66-2.312-7.832,2.219-10.038,5.116c-2.644,3.472-4.488,12.304-9.818,12.593
		c-2.187,0.119-2.64-0.541-3.081-1.573c-0.927-2.168-1.265-4.937-1.606-7.17c-1.262-8.268,1.256-23.748,2.25-32.038
		c0.442-3.689,3.322-12.912,1.057-16.21c-1.824-2.657-4.532-1.845-4.984,0.593l-1.465,7.172c-0.213-0.037-4.471,25.043-4.563,26.888
		c-0.019,0.378-0.014,0.752-0.024,1.129l-1.142-0.512c-14.476-10.404-23.25,16.605-18.748,25.229
		c4.897,9.381,14.025-1.478,16.907-5.978c1.497-2.337,3.46-5.075,3.945-7.826c0.619,3.103,1.5,6.178,2.636,9.234
		c1.811,4.875,6.941,12.932,13.015,6.364c4.73-5.113,4.257-12.873,9.315-17.805c2.86,5.568,3.251,12.277,7.806,17.212
		c3.636,3.94,5.047,2.64,5.652,0.013c-2.122-4.554-2.731-7.77-3.273-10.884C205.747,79.066,205.442,70.679,202.188,69.066
		 M154.685,85.438c0.021-0.135,0.04-0.219,0.056-0.28c0.697-3.044,6.302-17.792,9.841-13.457
		C166.293,73.797,158.147,86.496,154.685,85.438"/>
</g>
</svg>
