<svg xmlns="http://www.w3.org/2000/svg" viewBox="0 0 24 24">
  <path fill="#000" fill-rule="nonzero" d="M23 5.09c-.77.33-1.65.55-2.53.66.88-.55 1.65-1.43 1.98-2.42-.88.55-1.76.88-2.86 1.1C18.6 3.55 17.5 3 16.18 3c-2.42 0-4.51 1.98-4.51 4.4 0 .33 0 .66.11.99-3.74-.11-6.93-1.87-9.24-4.62-.44.66-.66 1.43-.66 2.31 0 1.54.77 2.86 1.98 3.74-.66-.11-1.43-.33-1.98-.66v.11c0 2.2 1.54 3.96 3.52 4.4-.33 0-.77.11-1.1.11-.33 0-.55 0-.88-.11.55 1.76 2.2 3.08 4.29 3.08-1.54 1.21-3.41 1.87-5.61 1.87-.33 0-.66 0-1.1-.11a12.54 12.54 0 0 0 6.93 2.09c8.25 0 12.87-6.82 12.87-12.65V7.4c.88-.66 1.54-1.43 2.2-2.31z"/>
</svg>
